<?xml version="1.0" encoding="UTF-8"?>
<svg width="16px" height="16px" viewBox="0 0 16 16" version="1.1" xmlns="http://www.w3.org/2000/svg" xmlns:xlink="http://www.w3.org/1999/xlink">
    <!-- Generator: Sketch 52.5 (67469) - http://www.bohemiancoding.com/sketch -->
    <title>calendar</title>
    <desc>Created with Sketch.</desc>
    <g id="Page-1" stroke="none" stroke-width="1" fill="none" fill-rule="evenodd">
        <g id="2.-Gioi-thieu" transform="translate(-669.000000, -2520.000000)" fill="#000000">
            <g id="Group-2" transform="translate(0.000000, 2348.000000)">
                <path d="M683.212582,173.787418 L682.327549,173.787418 L682.327549,175.557485 L679.672452,175.557485 L679.672452,173.787418 L674.32755,173.787418 L674.32755,175.557485 L671.672451,175.557485 L671.672451,173.787418 L670.787419,173.787418 C670.289947,173.787418 669.867681,173.960953 669.520607,174.308027 C669.173534,174.655099 669,175.07158 669,175.557485 L669,186.229935 C669,186.715838 669.173534,187.132319 669.520607,187.479393 C669.867681,187.826466 670.289947,188 670.787419,188 L683.212582,188 C683.710053,188 684.132319,187.826466 684.479393,187.479393 C684.826466,187.132319 685,186.715838 685,186.229935 L685,175.557485 C685,175.07158 684.826466,174.655099 684.479393,174.308027 C684.132319,173.960953 683.710053,173.787418 683.212582,173.787418 Z M683.212582,186.229935 L670.787419,186.229935 L670.787419,179.114967 L683.212582,179.114967 L683.212582,186.229935 Z M673.893709,172 L672.106292,172 L672.106292,175.123644 L673.893709,175.123644 L673.893709,172 Z M681.89371,172 L680.106291,172 L680.106291,175.123644 L681.89371,175.123644 L681.89371,172 Z" id="calendar"></path>
            </g>
        </g>
    </g>
</svg>