<?xml version="1.0" encoding="UTF-8"?>
<svg width="14px" height="16px" viewBox="0 0 14 16" version="1.1" xmlns="http://www.w3.org/2000/svg" xmlns:xlink="http://www.w3.org/1999/xlink">
    <!-- Generator: Sketch 52.5 (67469) - http://www.bohemiancoding.com/sketch -->
    <title>call-2</title>
    <desc>Created with Sketch.</desc>
    <g id="Page-1" stroke="none" stroke-width="1" fill="none" fill-rule="evenodd">
        <g id="1.-Trang-chu" transform="translate(-141.000000, -3318.000000)" fill="#FFC02C">
            <g id="Group-11" transform="translate(0.000000, 3242.000000)">
                <g id="Group-10">
                    <path d="M152.054427,92 C151.713239,92 151.269701,91.8898562 150.723801,91.6695652 C150.177902,91.4492743 149.575145,91.1188429 148.915515,90.6782609 C148.255886,90.2376789 147.567834,89.6753664 146.851341,88.9913055 C146.134846,88.3072423 145.446795,87.5014545 144.787165,86.573913 C144.150281,85.6927499 143.593016,84.8811631 143.115353,84.1391304 C142.63769,83.3970977 142.251017,82.7014522 141.955321,82.0521739 C141.636879,81.4260847 141.398051,80.8463805 141.23883,80.3130435 C141.079609,79.7797064 141,79.3043501 141,78.8869565 C141,78.5623174 141.051177,78.2724653 141.153534,78.0173913 C141.25589,77.7623174 141.375304,77.5420305 141.511779,77.3565217 C141.671,77.1942022 141.830219,77.049275 141.989439,76.921738 C142.14866,76.7942033 142.285133,76.6840587 142.398863,76.5913043 L142.501218,76.5217391 C142.774169,76.3130435 143.086919,76.173913 143.439481,76.1043478 C143.792041,76.0347826 144.047928,76 144.207149,76 C144.4801,76 144.684809,76.0637685 144.821283,76.1913055 C144.957758,76.3188402 145.060114,76.4637674 145.128351,76.626087 C145.196588,76.7420305 145.406983,77.188401 145.759546,77.9652163 C146.112106,78.7420338 146.31113,79.2 146.35662,79.3391304 C146.402111,79.4318848 146.430544,79.5420294 146.441918,79.6695663 C146.45329,79.7971011 146.447604,79.9188391 146.424858,80.0347826 C146.379367,80.173913 146.322502,80.3014478 146.254265,80.4173913 C146.186027,80.5333348 146.095046,80.6376804 145.981316,80.7304348 L145.913079,80.7652174 C145.776604,80.8579718 145.623072,80.9797098 145.452476,81.1304359 C145.281883,81.2811598 145.185216,81.4492739 145.162469,81.6347826 C145.139723,81.727537 145.145409,81.8260858 145.179528,81.9304337 C145.213648,82.0347837 145.264825,82.1333326 145.333062,82.226087 C145.537774,82.5043501 145.822095,82.8811576 146.186027,83.3565229 C146.54996,83.8318859 146.925262,84.3130413 147.311941,84.8 C147.69862,85.2869587 148.056862,85.7275347 148.386676,86.1217391 C148.716492,86.5159435 148.93826,86.7594195 149.05199,86.8521739 C149.142974,86.9449283 149.233955,87.0144935 149.324939,87.0608696 C149.415922,87.1072456 149.506904,87.1304348 149.597887,87.1304348 C149.711618,87.1536239 149.813971,87.1536239 149.904955,87.1304348 C149.995939,87.1072456 150.075548,87.0608696 150.143785,86.9913043 C150.303006,86.8521739 150.416734,86.7420294 150.484971,86.6608685 C150.553208,86.5797098 150.587327,86.5391304 150.587327,86.5391304 L150.621446,86.5391304 C150.644192,86.5159413 150.712427,86.4695652 150.826157,86.4 C150.939887,86.3304348 151.099106,86.2956522 151.303818,86.2956522 C151.440292,86.2956522 151.582452,86.3246381 151.730299,86.3826076 C151.878148,86.4405793 152.020308,86.5159413 152.156783,86.6086957 C152.543462,86.8637696 153.04955,87.2057945 153.675061,87.6347815 C154.300571,88.0637707 154.613322,88.2782609 154.613322,88.2782609 L154.64744,88.3130435 C154.761171,88.4057978 154.863524,88.5797087 154.954508,88.8347826 C155.045492,89.0898566 155.000001,89.3913021 154.818033,89.7391304 C154.72705,89.9246387 154.584892,90.1507232 154.39155,90.4173913 C154.19821,90.6840594 153.976443,90.9333321 153.726238,91.1652174 C153.476034,91.3971026 153.208773,91.5942022 152.924452,91.7565217 C152.640129,91.9188414 152.350122,92 152.054427,92 Z M144.207149,76.5913043 C144.070674,76.5913043 143.860276,76.6202902 143.575955,76.678262 C143.291632,76.7362315 143.047117,76.8347826 142.842404,76.973913 L142.740049,77.0782609 C142.626319,77.1478261 142.501219,77.2347815 142.364744,77.3391293 C142.228269,77.4434794 142.103169,77.5768109 141.989439,77.7391304 C141.87571,77.8782609 141.779042,78.0405782 141.699431,78.226087 C141.619821,78.4115957 141.580016,78.6318826 141.580016,78.8869565 C141.580016,79.2811609 141.659626,79.7275336 141.818846,80.2260881 C141.978067,80.7246403 142.205523,81.2753586 142.501218,81.8782609 C142.796914,82.4811631 143.172215,83.142026 143.627132,83.8608696 C144.082048,84.5797131 144.61657,85.3681107 145.230707,86.226087 C145.913083,87.1304392 146.601134,87.9130401 147.294881,88.5739142 C147.988629,89.2347859 148.642564,89.7739108 149.256701,90.1913043 C149.870838,90.6086977 150.422418,90.9159411 150.911453,91.1130435 C151.400489,91.3101459 151.781476,91.4086957 152.054427,91.4086957 C152.259138,91.4086957 152.480908,91.3391311 152.719741,91.2 C152.958571,91.0608689 153.180341,90.8985515 153.385052,90.7130435 C153.589764,90.5043467 153.771729,90.2898561 153.93095,90.0695652 C154.090171,89.8492743 154.215271,89.6463783 154.306254,89.4608696 C154.397238,89.2521739 154.419982,89.0898566 154.374492,88.973913 C154.329001,88.8579695 154.294882,88.7884065 154.272136,88.7652174 C154.181152,88.6956522 153.839971,88.4579729 153.248578,88.0521728 C152.657185,87.646375 152.190903,87.327537 151.849715,87.0956522 C151.758732,87.026087 151.66775,86.9739142 151.576766,86.9391293 C151.485783,86.9043467 151.394801,86.8869565 151.303818,86.8869565 C151.212834,86.8869565 151.144597,86.89855 151.099106,86.9217391 C151.053615,86.9449283 151.019497,86.9681152 150.99675,86.9913043 C150.974004,87.0144935 150.922827,87.0666663 150.843215,87.147825 C150.763606,87.2289859 150.655564,87.3275347 150.51909,87.4434783 C150.382615,87.5594218 150.234769,87.6405805 150.075548,87.6869565 C149.916327,87.7333326 149.757108,87.7449283 149.597887,87.7217391 C149.438667,87.7217391 149.273762,87.6869565 149.103169,87.6173913 C148.932574,87.5478261 148.779041,87.4434783 148.642567,87.3043478 C148.528837,87.1884043 148.301383,86.9217414 147.960195,86.5043478 C147.619006,86.0869543 147.243706,85.6347848 146.834281,85.1478261 C146.447602,84.6376782 146.066613,84.1449294 145.691309,83.6695641 C145.316002,83.194201 145.037369,82.828987 144.855402,82.573913 C144.741672,82.4115935 144.662062,82.2434794 144.616572,82.0695641 C144.571081,81.8956511 144.559707,81.7159435 144.582453,81.5304348 C144.6052,81.3913043 144.656376,81.2521739 144.735988,81.1130435 C144.815597,80.973913 144.900893,80.8579718 144.991876,80.7652174 C145.08286,80.6492739 145.179528,80.5565217 145.281886,80.4869565 C145.384241,80.4173913 145.480909,80.3478261 145.571893,80.2782609 L145.64013,80.2434783 C145.776604,80.1275347 145.844841,79.9942033 145.844841,79.8434771 C145.844841,79.6927533 145.833469,79.5942022 145.810723,79.5478261 C145.765232,79.4318826 145.571895,78.9913088 145.230707,78.226087 C144.889518,77.4608651 144.684809,77.0086957 144.616572,76.8695652 C144.571081,76.7768109 144.519902,76.7072456 144.463039,76.6608696 C144.406174,76.6144935 144.320879,76.5913043 144.207149,76.5913043 Z" id="call-2"></path>
                </g>
            </g>
        </g>
    </g>
</svg>