<?xml version="1.0" encoding="UTF-8"?>
<svg width="16px" height="16px" viewBox="0 0 16 16" version="1.1" xmlns="http://www.w3.org/2000/svg" xmlns:xlink="http://www.w3.org/1999/xlink">
    <!-- Generator: Sketch 52.5 (67469) - http://www.bohemiancoding.com/sketch -->
    <title>global</title>
    <desc>Created with Sketch.</desc>
    <g id="Page-1" stroke="none" stroke-width="1" fill="none" fill-rule="evenodd">
        <g id="1.-Trang-chu" transform="translate(-140.000000, -3375.000000)" fill="#FFC02C">
            <g id="Group-11" transform="translate(0.000000, 3242.000000)">
                <g id="Group-10">
                    <path d="M148,133 C148,133 148,133 148,133 C148,133 148,133 148,133 C148,133 147.987481,133 147.962441,133 C146.860713,133 145.82786,133.206572 144.863851,133.619717 C143.899839,134.032865 143.054777,134.6025 142.328638,135.328638 C141.6025,136.054777 141.032866,136.906098 140.619718,137.882629 C140.206571,138.85916 140,139.898272 140,141 C140,142.101728 140.206571,143.14084 140.619718,144.117371 C141.032866,145.093902 141.6025,145.945223 142.328638,146.671362 C143.054777,147.3975 143.899839,147.967134 144.863851,148.380282 C145.82786,148.793429 146.860713,149 147.962441,149 C147.987481,149 148,149 148,149 C148,149 148,149 148,149 C148,149 148,149 148,149 C149.101728,149 150.14084,148.793429 151.117371,148.380282 C152.093902,147.967134 152.945223,147.3975 153.671362,146.671362 C154.3975,145.945223 154.967135,145.093902 155.380283,144.117371 C155.793428,143.14084 156,142.101728 156,141 C156,139.898272 155.793428,138.85916 155.380283,137.882629 C154.967135,136.906098 154.3975,136.054777 153.671362,135.328638 C152.945223,134.6025 152.093902,134.032865 151.117371,133.619717 C150.14084,133.206572 149.101728,133 148,133 Z M148.338028,137.769953 C148.538343,137.769953 148.744912,137.763694 148.957745,137.751173 C149.170581,137.738654 149.37715,137.719876 149.577465,137.694836 C149.777779,137.669796 149.978089,137.638499 150.178404,137.600938 C150.378718,137.563379 150.579028,137.519561 150.779343,137.469484 C150.85446,137.694836 150.917059,137.932707 150.967136,138.183099 C151.017214,138.433491 151.054772,138.696399 151.079812,138.971831 C151.104852,139.247263 151.12989,139.528949 151.15493,139.816903 C151.17997,140.104853 151.192488,140.38654 151.192488,140.661972 L148.338028,140.661972 L148.338028,137.769953 Z M148.338028,137.131455 L148.338028,133.676056 C148.538343,133.751174 148.744912,133.870109 148.957745,134.032865 C149.170581,134.195619 149.37715,134.414709 149.577465,134.690141 C149.777779,134.965573 149.96557,135.284818 150.140845,135.647886 C150.31612,136.010957 150.478873,136.405319 150.629108,136.830986 C150.428793,136.881063 150.234743,136.924881 150.04695,136.962443 C149.859154,137.000001 149.677622,137.031298 149.502347,137.056338 C149.302033,137.081378 149.101723,137.100156 148.901408,137.112677 C148.701094,137.125196 148.513303,137.131455 148.338028,137.131455 Z M147.661972,133.676056 L147.661972,137.131455 C147.486697,137.131455 147.298906,137.125196 147.098592,137.112677 C146.898277,137.100156 146.697967,137.081378 146.497653,137.056338 C146.297338,137.031298 146.103288,137.000001 145.915494,136.962443 C145.727698,136.924881 145.546167,136.881063 145.370892,136.830986 C145.496089,136.380279 145.652581,135.973398 145.840377,135.61033 C146.02817,135.247259 146.222221,134.940533 146.422535,134.690141 C146.62285,134.414709 146.829419,134.189359 147.042255,134.014085 C147.255088,133.83881 147.461657,133.726134 147.661972,133.676056 Z M147.661972,137.769953 L147.661972,140.661972 L144.769953,140.661972 C144.769953,140.38654 144.782472,140.104853 144.807512,139.816903 C144.832552,139.528949 144.87011,139.247263 144.920188,138.971831 C144.945228,138.696399 144.982786,138.433491 145.032864,138.183099 C145.082941,137.932707 145.133021,137.694836 145.183099,137.469484 C145.383413,137.494523 145.583723,137.532082 145.784038,137.58216 C145.984352,137.632237 146.197183,137.669796 146.422535,137.694836 C146.62285,137.719876 146.829419,137.738654 147.042255,137.751173 C147.255088,137.763694 147.461657,137.769953 147.661972,137.769953 Z M144.131455,140.661972 L140.638498,140.661972 C140.663537,140.261345 140.713615,139.866982 140.788732,139.478872 C140.86385,139.090764 140.976525,138.708923 141.126761,138.333333 C141.276996,137.957744 141.452268,137.6072 141.652582,137.28169 C141.852896,136.956181 142.065726,136.643195 142.29108,136.342723 C142.491394,136.44288 142.679185,136.536776 142.85446,136.624412 C143.029735,136.71205 143.217526,136.793427 143.41784,136.868545 C143.593115,136.943662 143.780906,137.018779 143.981221,137.093897 C144.181535,137.169014 144.381845,137.231613 144.58216,137.28169 C144.507042,137.532082 144.444444,137.794991 144.394366,138.070423 C144.344289,138.345854 144.294209,138.621282 144.244131,138.896714 C144.219092,139.197186 144.194054,139.491391 144.169014,139.779342 C144.143974,140.067295 144.131455,140.3615 144.131455,140.661972 Z M144.131455,141.338028 C144.131455,141.6385 144.143974,141.932705 144.169014,142.220658 C144.194054,142.508609 144.219092,142.802814 144.244131,143.103286 C144.294209,143.378718 144.344289,143.654146 144.394366,143.929577 C144.444444,144.205009 144.507042,144.467918 144.58216,144.71831 C144.381845,144.768387 144.181535,144.830986 143.981221,144.906103 C143.780906,144.981221 143.593115,145.056338 143.41784,145.131455 C143.217526,145.206573 143.029735,145.28795 142.85446,145.375588 C142.679185,145.463224 142.491394,145.55712 142.29108,145.657277 C142.065726,145.356805 141.852896,145.043819 141.652582,144.71831 C141.452268,144.3928 141.276996,144.042256 141.126761,143.666667 C140.976525,143.291077 140.86385,142.909236 140.788732,142.521128 C140.713615,142.133018 140.663537,141.738657 140.638498,141.338028 L144.131455,141.338028 Z M144.769953,141.338028 L147.661972,141.338028 L147.661972,144.230047 C147.461657,144.230047 147.255088,144.236306 147.042255,144.248827 C146.829419,144.261346 146.62285,144.280124 146.422535,144.305164 C146.197183,144.330204 145.984352,144.361501 145.784038,144.399062 C145.583723,144.436621 145.383413,144.480439 145.183099,144.530516 C145.133021,144.305164 145.082941,144.067293 145.032864,143.816901 C144.982786,143.566509 144.945228,143.303601 144.920188,143.028169 C144.87011,142.752737 144.832552,142.471051 144.807512,142.183097 C144.782472,141.895147 144.769953,141.61346 144.769953,141.338028 Z M147.661972,144.868545 L147.661972,148.323944 C147.461657,148.273865 147.255088,148.16119 147.042255,147.985915 C146.829419,147.810641 146.62285,147.585291 146.422535,147.309859 C146.222221,147.059467 146.02817,146.75274 145.840377,146.38967 C145.652581,146.026602 145.496089,145.619721 145.370892,145.169014 C145.546167,145.118937 145.727698,145.075119 145.915494,145.037557 C146.103288,144.999999 146.297338,144.968702 146.497653,144.943662 C146.697967,144.918622 146.898277,144.899844 147.098592,144.887323 C147.298906,144.874804 147.486697,144.868545 147.661972,144.868545 Z M148.338028,148.323944 L148.338028,144.868545 C148.513303,144.868545 148.701094,144.874804 148.901408,144.887323 C149.101723,144.899844 149.302033,144.918622 149.502347,144.943662 C149.677622,144.968702 149.859154,144.999999 150.04695,145.037557 C150.234743,145.075119 150.428793,145.118937 150.629108,145.169014 C150.478873,145.594681 150.31612,145.989043 150.140845,146.352114 C149.96557,146.715182 149.777779,147.034427 149.577465,147.309859 C149.37715,147.585291 149.170581,147.804381 148.957745,147.967136 C148.744912,148.129891 148.538343,148.248826 148.338028,148.323944 Z M148.338028,144.230047 L148.338028,141.338028 L151.192488,141.338028 C151.192488,141.61346 151.17997,141.895147 151.15493,142.183097 C151.12989,142.471051 151.104852,142.752737 151.079812,143.028169 C151.054772,143.303601 151.017214,143.566509 150.967136,143.816901 C150.917059,144.067293 150.85446,144.305164 150.779343,144.530516 C150.579028,144.480439 150.378718,144.436621 150.178404,144.399062 C149.978089,144.361501 149.777779,144.330204 149.577465,144.305164 C149.37715,144.280124 149.170581,144.261346 148.957745,144.248827 C148.744912,144.236306 148.538343,144.230047 148.338028,144.230047 Z M151.830986,141.338028 L155.361502,141.338028 C155.336462,141.738657 155.286385,142.133018 155.211268,142.521128 C155.13615,142.909236 155.023474,143.291077 154.873239,143.666667 C154.723005,144.042256 154.547732,144.3928 154.347418,144.71831 C154.147103,145.043819 153.934272,145.356805 153.70892,145.657277 C153.508606,145.55712 153.320815,145.463224 153.14554,145.375588 C152.970265,145.28795 152.782474,145.206573 152.58216,145.131455 C152.381845,145.056338 152.187795,144.981221 152.000001,144.906103 C151.812205,144.830986 151.618155,144.768387 151.41784,144.71831 C151.467918,144.467918 151.524257,144.205009 151.586853,143.929577 C151.649452,143.654146 151.69327,143.378718 151.71831,143.103286 C151.74335,142.802814 151.768387,142.508609 151.793427,142.220658 C151.818467,141.932705 151.830986,141.6385 151.830986,141.338028 Z M151.830986,140.661972 C151.830986,140.3615 151.818467,140.067295 151.793427,139.779342 C151.768387,139.491391 151.74335,139.197186 151.71831,138.896714 C151.69327,138.621282 151.649452,138.345854 151.586853,138.070423 C151.524257,137.794991 151.467918,137.532082 151.41784,137.28169 C151.618155,137.231613 151.812205,137.169014 152.000001,137.093897 C152.187795,137.018779 152.381845,136.943662 152.58216,136.868545 C152.782474,136.793427 152.970265,136.71205 153.14554,136.624412 C153.320815,136.536776 153.508606,136.44288 153.70892,136.342723 C153.934272,136.618155 154.147103,136.924881 154.347418,137.262912 C154.547732,137.60094 154.723005,137.957744 154.873239,138.333333 C155.023474,138.708923 155.13615,139.090764 155.211268,139.478872 C155.286385,139.866982 155.336462,140.261345 155.361502,140.661972 L151.830986,140.661972 Z M153.258216,135.85446 C153.082941,135.929577 152.913928,136.004695 152.751175,136.079812 C152.588419,136.15493 152.431925,136.230047 152.28169,136.305164 C152.106415,136.380282 151.931143,136.44914 151.755869,136.511738 C151.580594,136.574334 151.405322,136.630674 151.230047,136.680751 C151.12989,136.380279 151.029735,136.092333 150.929577,135.816901 C150.82942,135.541469 150.704225,135.278561 150.553991,135.028169 C150.428793,134.802817 150.297339,134.589986 150.159623,134.389671 C150.02191,134.189357 149.877934,134.001566 149.7277,133.826291 C150.053209,133.901408 150.378716,134.007825 150.704225,134.145539 C151.029735,134.283255 151.342721,134.42723 151.643192,134.577465 C151.943664,134.752739 152.225351,134.94679 152.488262,135.159626 C152.751175,135.372459 153.007824,135.604068 153.258216,135.85446 Z M146.2723,133.826291 C146.097026,134.001566 145.940532,134.189357 145.802816,134.389671 C145.665102,134.589986 145.533648,134.802817 145.408451,135.028169 C145.283253,135.278561 145.16432,135.541469 145.051642,135.816901 C144.938966,136.092333 144.832552,136.380279 144.732394,136.680751 C144.55712,136.605634 144.388107,136.543035 144.225351,136.492958 C144.062597,136.44288 143.893585,136.380282 143.71831,136.305164 C143.543035,136.230047 143.380282,136.15493 143.230047,136.079812 C143.079812,136.004695 142.917059,135.929577 142.741784,135.85446 C142.992176,135.604068 143.248825,135.372459 143.511738,135.159626 C143.774649,134.94679 144.056336,134.765258 144.356808,134.615023 C144.657279,134.439749 144.964006,134.289516 145.276994,134.164319 C145.589985,134.039122 145.921751,133.926448 146.2723,133.826291 Z M142.741784,146.14554 C142.892019,146.070423 143.048513,145.995305 143.211269,145.920188 C143.374022,145.84507 143.543035,145.769953 143.71831,145.694836 C143.893585,145.619718 144.062597,145.55086 144.225351,145.488262 C144.388107,145.425666 144.55712,145.369326 144.732394,145.319249 C144.832552,145.619721 144.938966,145.907667 145.051642,146.183099 C145.16432,146.458531 145.283253,146.721438 145.408451,146.971831 C145.533648,147.197184 145.665102,147.410015 145.802816,147.610329 C145.940532,147.810643 146.097026,147.998434 146.2723,148.173709 C145.921751,148.073552 145.589985,147.960877 145.276994,147.835681 C144.964006,147.710484 144.657279,147.560251 144.356808,147.384977 C144.056336,147.234741 143.774649,147.053209 143.511738,146.840376 C143.248825,146.627542 142.992176,146.395932 142.741784,146.14554 Z M149.7277,148.173709 C149.877934,147.998434 150.02191,147.810643 150.159623,147.610329 C150.297339,147.410015 150.428793,147.197184 150.553991,146.971831 C150.704225,146.721438 150.82942,146.458531 150.929577,146.183099 C151.029735,145.907667 151.12989,145.619721 151.230047,145.319249 C151.405322,145.369326 151.580594,145.425666 151.755869,145.488262 C151.931143,145.55086 152.106415,145.619718 152.28169,145.694836 C152.431925,145.769953 152.588419,145.84507 152.751175,145.920188 C152.913928,145.995305 153.082941,146.070423 153.258216,146.14554 C153.007824,146.395932 152.751175,146.627542 152.488262,146.840376 C152.225351,147.053209 151.943664,147.247261 151.643192,147.422535 C151.342721,147.572771 151.029735,147.710484 150.704225,147.835681 C150.378716,147.960877 150.053209,148.073552 149.7277,148.173709 Z" id="global"></path>
                </g>
            </g>
        </g>
    </g>
</svg>