<?xml version="1.0" encoding="UTF-8"?>
<svg width="15px" height="16px" viewBox="0 0 15 16" version="1.1" xmlns="http://www.w3.org/2000/svg" xmlns:xlink="http://www.w3.org/1999/xlink">
    <!-- Generator: Sketch 52.5 (67469) - http://www.bohemiancoding.com/sketch -->
    <title>home</title>
    <desc>Created with Sketch.</desc>
    <g id="Page-1" stroke="none" stroke-width="1" fill="none" fill-rule="evenodd">
        <g id="1.-Trang-chu" transform="translate(-139.000000, -3275.000000)" fill="#FFC02C">
            <g id="Group-11" transform="translate(0.000000, 3242.000000)">
                <g id="Group-10">
                    <path d="M146.5,33 L139,41.828124 L139.703125,42.53125 L141.5,40.5 L141.5,47 C141.5,47.552086 141.697914,48.0234356 142.09375,48.4140624 C142.489586,48.8046895 142.963538,49 143.515624,49 L149.484376,49 C150.036462,49 150.510414,48.8046895 150.90625,48.4140624 C151.302086,48.0234356 151.5,47.552086 151.5,47 L151.5,40.5 L153.296876,42.53125 L154,41.828124 L146.5,33 Z M150.584376,46.9949192 C150.584376,47.2671298 150.488022,47.5026934 150.295312,47.7016166 C150.102604,47.9005398 149.865626,48 149.584376,48 L143.615624,48 C143.334374,48 143.094792,47.9005398 142.896876,47.7016166 C142.698958,47.5026934 142.6,47.2671298 142.6,46.9949192 L142.6,39.2683603 L146.6,34.4 L150.6,39.2526569 L150.584376,46.9949192 Z" id="home"></path>
                </g>
            </g>
        </g>
    </g>
</svg>