<?xml version="1.0" encoding="UTF-8"?>
<svg width="14px" height="14px" viewBox="0 0 14 14" version="1.1" xmlns="http://www.w3.org/2000/svg" xmlns:xlink="http://www.w3.org/1999/xlink">
    <!-- Generator: Sketch 50.2 (55047) - http://www.bohemiancoding.com/sketch -->
    <title>Fill 1</title>
    <desc>Created with Sketch.</desc>
    <defs></defs>
    <g id="Page-1" stroke="none" stroke-width="1" fill="none" fill-rule="evenodd">
        <g id="01.-Trang-Chu" transform="translate(-1046.000000, -23.000000)" fill="#EBA32E">
            <g id="Group-4" transform="translate(1046.000000, 20.000000)">
                <g id="Group-3">
                    <path d="M11.7451597,11.5009347 C11.4787618,11.4722937 11.209991,11.4269466 10.9388382,11.3648896 C10.6676854,11.3028345 10.4084281,11.2288464 10.1610608,11.1429235 C9.8280648,11.0188114 9.49031754,10.9973303 9.14780804,11.07848 C8.80530037,11.1596297 8.49609359,11.3243139 8.22018402,11.5725362 L7.79204944,12.0021525 C7.24022848,11.6298163 6.72647246,11.2121403 6.25076493,10.7491098 C5.7750574,10.2860775 5.35644179,9.76338583 4.99490349,9.18101648 L5.42303807,8.751402 C5.66089184,8.51272606 5.82025198,8.21199868 5.90112215,7.84921067 C5.98199232,7.4864245 5.96534188,7.1379634 5.85117265,6.80381636 C5.75603042,6.55559405 5.67754045,6.29782719 5.61569909,6.03051029 C5.55385591,5.7631934 5.50866499,5.49110698 5.48012268,5.21424187 C5.42303807,4.75598459 5.21848701,4.37649592 4.8664622,4.07576487 C4.51443921,3.77503199 4.11009384,3.62466921 3.65341512,3.62466921 C3.65341512,3.62466921 3.65341512,3.62466921 3.65341512,3.62466921 L1.82670756,3.62466921 C1.79816507,3.62466921 1.76724458,3.62466921 1.73394516,3.62466921 C1.70064556,3.62466921 1.66972506,3.62466921 1.64118257,3.62466921 C1.40332881,3.65331018 1.17974967,3.72729827 0.970438392,3.84663715 C0.761127115,3.9659742 0.580361067,4.11633881 0.428134585,4.29773098 C0.275908285,4.47912498 0.166497124,4.68676969 0.0998980697,4.92067243 C0.0332990156,5.15457518 0,5.39563404 0,5.64385818 C0.047570753,6.13075642 0.123682807,6.61764733 0.228338445,7.10454558 C0.342508216,7.59144565 0.482839909,8.06879019 0.649337545,8.53659384 C0.815834997,9.00439933 1.00849364,9.46265111 1.22731914,9.91136017 C1.44614464,10.3600711 1.68399475,10.7896819 1.94087678,11.2002054 C2.18824404,11.5820862 2.45463646,11.9496419 2.74006134,12.3028817 C3.02548622,12.6656697 3.32993444,13.0093576 3.65341512,13.3339564 C3.9768958,13.6585553 4.31939982,13.9640558 4.68093812,14.2504673 C5.03296111,14.5368788 5.39925068,14.8041921 5.77981598,15.0524144 C6.1889254,15.3292784 6.61705633,15.5774976 7.06422156,15.7970795 C7.51138495,16.0166614 7.97043656,16.2075992 8.44138735,16.3698988 C8.91233813,16.5321984 9.38565998,16.6658548 9.86136751,16.7708723 C10.3465885,16.8854367 10.836559,16.9618119 11.3312953,17 C11.3598376,17 11.3883799,17 11.4169223,17 C11.4454646,17 11.4740069,17 11.5025492,17 C11.5025492,17 11.5025492,17 11.5025492,17 C11.7499164,17 11.9877665,16.9546523 12.2161068,16.8639554 C12.4444471,16.7732585 12.6347261,16.6372153 12.7869529,16.4558217 C12.9391798,16.274428 13.0676192,16.0763299 13.172275,15.8615215 C13.2769289,15.6467134 13.3292567,15.4152011 13.3292567,15.1669782 L13.3292567,13.3339564 C13.3292567,12.8756992 13.1794119,12.4723427 12.879715,12.1238761 C12.5800198,11.7754095 12.2018384,11.5677648 11.7451597,11.5009347 Z M12.1162078,13.3339564 L12.1162078,15.1669782 C12.1162078,15.2624486 12.1019376,15.3435972 12.0733953,15.4104264 C12.044853,15.4772557 11.9972837,15.5393104 11.9306838,15.5965927 C11.8735991,15.6634219 11.8093794,15.7111564 11.7380227,15.7397975 C11.6666679,15.7684387 11.5691491,15.782759 11.4454646,15.782759 C11.0078128,15.7350238 10.5701702,15.6634221 10.1325185,15.5679517 C9.70438209,15.4724814 9.2810079,15.3483719 8.86238499,15.1956192 C8.44376389,15.0428661 8.0299032,14.8710222 7.6207956,14.6800818 C7.2212015,14.4795932 6.83112637,14.2552424 6.45056107,14.00702 C6.09853809,13.7969851 5.76554756,13.563086 5.45158038,13.3053155 C5.12809969,13.047545 4.82127311,12.7706853 4.53109148,12.4747275 C4.24090985,12.1787696 3.96738231,11.8684959 3.71049973,11.543897 C3.45361715,11.2192964 3.2110103,10.8803816 2.98267003,10.5271418 C2.73530277,10.1452611 2.51648147,9.75383761 2.32619882,9.35286227 C2.12640086,8.95188692 1.95277048,8.5413707 1.80530074,8.12130076 C1.65783155,7.70123083 1.53177101,7.27162185 1.42711528,6.83245732 C1.33197378,6.40284101 1.26061874,5.96368382 1.21304799,5.51497292 C1.21304799,5.42905002 1.22731896,5.35267534 1.25586145,5.2858452 C1.28440394,5.21901506 1.31294588,5.15218858 1.34148836,5.08535844 C1.39857334,5.02807651 1.46992837,4.97318117 1.55555566,4.92067243 C1.64118294,4.86816369 1.73156605,4.84191115 1.82670756,4.84191115 L3.65341512,4.84191115 C3.65341512,4.84191115 3.65341512,4.84191115 3.65341512,4.84191115 C3.80564197,4.84191115 3.9364598,4.89680465 4.04587228,5.00659533 C4.15528476,5.116386 4.22901798,5.24765602 4.26707561,5.40040906 C4.29561791,5.7059133 4.3527007,6.01857549 4.43832944,6.33840113 C4.52395636,6.65822677 4.62861026,6.95656756 4.75229297,7.23343084 C4.78083711,7.35754291 4.78321548,7.47687812 4.75942992,7.59144382 C4.73564436,7.70600768 4.69045344,7.81102333 4.62385351,7.9064926 L3.83893919,8.63683814 C3.74379878,8.72276103 3.6843358,8.8349383 3.66055024,8.97336994 C3.63676468,9.11180157 3.65341512,9.2430716 3.71049973,9.36718367 C3.93884,9.77770539 4.1957171,10.169127 4.48114198,10.5414614 C4.75705155,10.9137976 5.05912139,11.2646453 5.38736065,11.5940173 C5.71559807,11.9233912 6.06523721,12.2312784 6.43629083,12.5176898 C6.80734263,12.7945531 7.19741594,13.047545 7.60652354,13.2766745 C7.73020808,13.3435047 7.86102592,13.3697572 7.9989807,13.3554376 C8.13693548,13.3411162 8.24872633,13.2766745 8.33435325,13.1621107 L9.1335378,12.3601636 C9.22868004,12.2742407 9.33333394,12.2169588 9.44750316,12.1883178 C9.56167239,12.1596769 9.68059836,12.1787696 9.8042829,12.2455998 C10.1087348,12.3601636 10.413183,12.4532463 10.7176367,12.5248496 C11.0220885,12.5964511 11.3265368,12.665666 11.6309905,12.7324962 C11.7546732,12.7611371 11.8664622,12.830352 11.9663612,12.9401427 C12.0662602,13.0499334 12.1162078,13.1812034 12.1162078,13.3339564 C12.1162078,13.3339564 12.1162078,13.3339564 12.1162078,13.3339564 Z M10.2895003,8.57955621 C10.3180444,8.73230924 10.3893993,8.85164446 10.5035685,8.93756735 C10.6177377,9.02349208 10.7509339,9.06645262 10.9031608,9.06645262 C10.9317031,9.06645262 10.9507319,9.06645262 10.9602454,9.06645262 C10.9697589,9.06645262 10.9887877,9.06645262 11.01733,9.06645262 C11.1695568,9.03781165 11.2979963,8.95427535 11.402652,8.81584371 C11.5073059,8.67741207 11.540605,8.51750109 11.5025492,8.33610892 C11.3503223,7.60098653 11.0197102,6.9685042 10.5107036,6.43864359 C10.001697,5.90878298 9.38090871,5.58180306 8.64831861,5.45769099 C8.49609176,5.42905002 8.34386856,5.45769099 8.19164172,5.54361388 C8.03941487,5.62953678 7.94903303,5.7631934 7.92049073,5.9445874 C7.8824331,6.1259814 7.90859703,6.28589239 7.9989807,6.42432403 C8.08936619,6.56275566 8.22494077,6.64629013 8.4057081,6.67493293 C8.89093094,6.7704022 9.30241144,6.98759329 9.64016418,7.32651352 C9.97791693,7.66543374 10.1943599,8.08310975 10.2895003,8.57955621 Z M8.591234,3.00888937 C8.43900715,2.98024657 8.29629745,3.02082234 8.16309941,3.13061302 C8.02990138,3.24040369 7.94903303,3.38599328 7.92049073,3.56738728 C7.8824331,3.72014032 7.91811053,3.86095672 8.027523,3.98984198 C8.13693548,4.11872724 8.28202538,4.2022617 8.46279271,4.24044905 C9.02412898,4.29773281 9.55215524,4.44570899 10.0468916,4.68438493 C10.5416279,4.93260724 10.9792723,5.24765602 11.3598376,5.62953678 C11.7404029,6.01141754 12.0543665,6.45057473 12.3017337,6.94702118 C12.549101,7.45301401 12.7108395,7.99718686 12.7869529,8.57955621 C12.8154952,8.73230924 12.8868501,8.86119267 13.0010211,8.96621015 C13.1151904,9.0712258 13.2483866,9.12373455 13.4006134,9.12373455 C13.4006134,9.12373455 13.4101269,9.12373455 13.4291539,9.12373455 C13.4481827,9.12373455 13.457698,9.12373455 13.457698,9.12373455 C13.609923,9.09509358 13.7383625,9.01394571 13.8430182,8.88028542 C13.947674,8.74662698 14,8.60342398 14,8.45067278 C13.9143731,7.73464498 13.7145788,7.06158871 13.4006134,6.43148381 C13.0866462,5.80137891 12.689436,5.24765969 12.2089717,4.77030782 C11.7285074,4.29295596 11.1790721,3.8967593 10.5606531,3.58170868 C9.94223403,3.2762026 9.28576648,3.08526406 8.591234,3.00888937 Z" id="Fill-1"></path>
                </g>
            </g>
        </g>
    </g>
</svg>