<?xml version="1.0" encoding="UTF-8"?>
<svg width="40px" height="40px" viewBox="0 0 40 40" version="1.1" xmlns="http://www.w3.org/2000/svg" xmlns:xlink="http://www.w3.org/1999/xlink">
    <!-- Generator: Sketch 52.5 (67469) - http://www.bohemiancoding.com/sketch -->
    <title>play</title>
    <desc>Created with Sketch.</desc>
    <g id="Page-1" stroke="none" stroke-width="1" fill="none" fill-rule="evenodd">
        <g id="Home" transform="translate(-550.000000, -3097.000000)">
            <g id="play" transform="translate(550.000000, 3097.000000)">
                <circle id="Oval" fill="#DEA92E" fill-rule="nonzero" cx="20" cy="20" r="15"></circle>
                <path d="M20.000003,0 C17.2521338,0 14.6604365,0.523632583 12.2248214,1.57092176 C9.78921218,2.61821094 7.66589302,4.04844373 5.85480094,5.86166215 C4.04370705,7.67488058 2.61514971,9.79287408 1.56908695,12.2157087 C0.523023648,14.6385433 0,17.225464 0,19.9765488 C0,22.7588999 0.523023648,25.3614567 1.56908695,27.7842913 C2.61514971,30.2071259 4.04370705,32.3251194 5.85480094,34.1383348 C7.66589302,35.9515521 9.78921218,37.3817843 12.2248214,38.4290734 C14.6604365,39.4763632 17.2521338,40 20.000003,40 C22.7478662,40 25.3395635,39.4763632 27.7751726,38.4290734 C30.2107878,37.3817843 32.334107,35.9515521 34.1451961,34.1383348 C35.9562911,32.3251194 37.3848491,30.2071259 38.4309119,27.7842913 C39.4769746,25.3614567 40,22.7588999 40,19.9765488 C40,17.225464 39.4769746,14.6385433 38.4309119,12.2157087 C37.3848491,9.79287408 35.9562911,7.67488058 34.1451961,5.86166215 C32.334107,4.04844373 30.2107878,2.61821094 27.7751726,1.57092176 C25.3395635,0.523632583 22.7478662,0 20.000003,0 Z M16.0187354,12.0046902 L28.0093677,19.9765488 L16.0187354,27.9953098 L16.0187354,12.0046902 Z" id="Fill-1" fill="#F5F5F5"></path>
            </g>
        </g>
    </g>
</svg>