<?xml version="1.0" encoding="UTF-8"?>
<svg width="40px" height="40px" viewBox="0 0 40 40" version="1.1" xmlns="http://www.w3.org/2000/svg" xmlns:xlink="http://www.w3.org/1999/xlink">
    <!-- Generator: Sketch 52.5 (67469) - http://www.bohemiancoding.com/sketch -->
    <title>checked</title>
    <desc>Created with Sketch.</desc>
    <g id="Page-1" stroke="none" stroke-width="1" fill="none" fill-rule="evenodd">
        <g id="Home" transform="translate(-853.000000, -1553.000000)" fill="#FFC02C">
            <g id="checked" transform="translate(853.000000, 1553.000000)">
                <path d="M34.1421094,5.8578125 C30.3646094,2.0803125 25.3422656,0 20,0 C14.6577344,0 9.63539062,2.0803125 5.85796875,5.8578125 C2.0803125,9.63539062 0,14.6578125 0,20 C0,25.3421875 2.0803125,30.3646094 5.85796875,34.1421875 C9.63539062,37.9196875 14.6577344,40 20,40 C25.3422656,40 30.3646094,37.9196875 34.1421094,34.1421875 C37.9196875,30.3646094 40,25.3421875 40,20 C40,14.6578125 37.9196875,9.63539062 34.1421094,5.8578125 Z M20,38.4064063 C9.85070313,38.4064063 1.59359375,30.149375 1.59359375,20 C1.59359375,9.850625 9.85070313,1.59359375 20,1.59359375 C30.1492969,1.59359375 38.4064063,9.85070313 38.4064063,20 C38.4064063,30.1492969 30.1492969,38.4064063 20,38.4064063 Z" id="Shape" fill-rule="nonzero"></path>
                <path d="M31.374375,11.4144531 C30.2870312,10.3271094 28.5177344,10.3271094 27.4303906,11.4144531 L15.6971875,23.1475781 L11.8524219,19.3029687 C10.7650781,18.215625 8.99578125,18.215625 7.9084375,19.3029687 C6.82109375,20.3903125 6.82109375,22.1596094 7.9084375,23.2470312 L13.7252344,29.06375 C14.2520312,29.5904687 14.9523437,29.8804687 15.6971875,29.8804687 C16.4420312,29.8804687 17.1423437,29.5903906 17.6692187,29.0636719 L31.374375,15.3585156 C32.4616406,14.2710938 32.4616406,12.5017188 31.374375,11.4144531 Z M30.2475,14.2315625 L16.5424219,27.9367187 C16.3166406,28.1624219 16.0164844,28.286875 15.6972656,28.286875 C15.3780469,28.286875 15.0778906,28.1625 14.8521875,27.9367187 L9.03546875,22.12 C8.569375,21.6539062 8.569375,20.8957031 9.03539062,20.4296875 C9.26835937,20.1967187 9.57445312,20.0802344 9.88054687,20.0802344 C10.1865625,20.0802344 10.4927344,20.1967969 10.725625,20.4297656 L15.13375,24.8378906 C15.4450781,25.1490625 15.9494531,25.1490625 16.2607031,24.8378906 L28.5571875,12.54125 C29.0232813,12.0752344 29.7815625,12.0752344 30.2475781,12.54125 C30.7135156,13.0072656 30.7135156,13.7654688 30.2475,14.2315625 Z" id="Shape" fill-rule="nonzero"></path>
                <path d="M36.1039844,23.2916406 C35.6771094,23.1828906 35.24375,23.440625 35.1352344,23.8671094 C33.373125,30.7855469 27.149375,35.6175 20,35.6175 C19.56,35.6175 19.2032031,35.9742187 19.2032031,36.4142969 C19.2032031,36.854375 19.56,37.2110938 20,37.2110938 C27.8786719,37.2110938 34.7375,31.885625 36.6795312,24.2603906 C36.788125,23.8340625 36.5305469,23.4002344 36.1039844,23.2916406 Z" id="Path"></path>
                <path d="M36.414375,19.2032812 C35.974375,19.2032812 35.6175781,19.56 35.6175781,20.0000781 C35.6175781,20.2278906 35.6126563,20.4575 35.6028906,20.6828125 C35.5838281,21.1224219 35.9248438,21.4942969 36.3645313,21.5132812 C36.37625,21.51375 36.3878906,21.5139844 36.3995313,21.5139844 C36.82375,21.5139844 37.1764844,21.1794531 37.195,20.7515625 C37.2057813,20.5035156 37.2111719,20.2507031 37.2111719,20.0000781 C37.2111719,19.56 36.854375,19.2032812 36.414375,19.2032812 Z" id="Path"></path>
            </g>
        </g>
    </g>
</svg>