<?xml version="1.0" encoding="UTF-8"?>
<svg width="59px" height="60px" viewBox="0 0 59 60" version="1.1" xmlns="http://www.w3.org/2000/svg" xmlns:xlink="http://www.w3.org/1999/xlink">
    <!-- Generator: Sketch 52.5 (67469) - http://www.bohemiancoding.com/sketch -->
    <title>jewelry</title>
    <desc>Created with Sketch.</desc>
    <g id="Page-1" stroke="none" stroke-width="1" fill="none" fill-rule="evenodd">
        <g id="2.-Gioi-thieu" transform="translate(-1090.000000, -2113.000000)">
            <g id="jewelry" transform="translate(1090.000000, 2113.000000)">
                <polygon id="Path" fill="#D79A0B" points="11.29083 16.4994118 2.18595 30.6847059 29.5 59.9141176 56.81405 30.6847059 47.70917 16.4994118"></polygon>
                <g id="Group" transform="translate(1.770000, 16.470588)" fill="#FFFFFF">
                    <polygon id="Path" points="18.62512 14.2141176 0.41595 14.2141176 9.52083 0.0288235294"></polygon>
                    <polygon id="Path" points="36.83488 14.2141176 18.62512 14.2141176 27.73 0.0288235294"></polygon>
                    <polygon id="Path" points="55.04405 14.2141176 36.83488 14.2141176 45.93917 0.0288235294"></polygon>
                </g>
                <polygon id="Path" fill="#FFFFFF" points="20.39512 30.6847059 29.5 59.9141176 38.60488 30.6847059"></polygon>
                <path d="M29.5,0.235294118 C28.929766,0.235294118 28.4675,0.696177463 28.4675,1.26470588 L28.4675,8.80235294 C28.4675,9.37088136 28.929766,9.83176471 29.5,9.83176471 C30.070234,9.83176471 30.5325,9.37088136 30.5325,8.80235294 L30.5325,1.26235294 C30.5311987,0.694743619 30.0693136,0.235292635 29.5,0.235294118 Z" id="Path" fill="#E7FFFF"></path>
                <path d="M17.55309,4.30470588 C17.2939097,4.03705181 16.9100447,3.9296525 16.5490336,4.02378691 C16.1880224,4.11792133 15.9060468,4.39893998 15.8114841,4.75883327 C15.7169214,5.11872656 15.8244877,5.50148681 16.09284,5.76 L21.4406,11.0917647 C21.7013431,11.351728 22.0813846,11.4532552 22.4375663,11.358102 C22.7937481,11.2629489 23.0719577,10.9855714 23.1673963,10.630455 C23.2628349,10.2753385 23.1610031,9.89643384 22.90026,9.63647059 L17.55309,4.30470588 Z" id="Path" fill="#E7FFFF"></path>
                <path d="M42.90716,4.30470588 C42.7136025,4.11148672 42.4509373,4.00291708 42.177035,4.00291708 C41.9031327,4.00291708 41.6404675,4.11148672 41.44691,4.30470588 L36.09974,9.63647059 C35.696666,10.038339 35.696666,10.6898963 36.09974,11.0917647 C36.502814,11.4936331 37.156326,11.4936331 37.5594,11.0917647 L42.90716,5.76 C43.3100328,5.35804856 43.3100328,4.70665732 42.90716,4.30470588 Z" id="Path" fill="#E7FFFF"></path>
                <ellipse id="Oval" fill="#FFC02C" cx="6.07051" cy="22.0641176" rx="5.98437" ry="5.96647059"></ellipse>
                <ellipse id="Oval" fill="#FFC02C" cx="44.76861" cy="46.1217647" rx="7.93904" ry="7.91529412"></ellipse>
                <ellipse id="Oval" fill="#FFC02C" cx="53.9968" cy="10.3641176" rx="4.90526" ry="4.89058824"></ellipse>
            </g>
        </g>
    </g>
</svg>