<?xml version="1.0" encoding="UTF-8"?>
<svg width="54px" height="60px" viewBox="0 0 54 60" version="1.1" xmlns="http://www.w3.org/2000/svg" xmlns:xlink="http://www.w3.org/1999/xlink">
    <!-- Generator: Sketch 52.5 (67469) - http://www.bohemiancoding.com/sketch -->
    <title>shield-2</title>
    <desc>Created with Sketch.</desc>
    <g id="Page-1" stroke="none" stroke-width="1" fill="none" fill-rule="evenodd">
        <g id="2.-Gioi-thieu" transform="translate(-296.000000, -2113.000000)">
            <g id="shield-2" transform="translate(296.000000, 2113.000000)">
                <path d="M53.7,9.798 C44.6166348,7.08953781 35.7011198,3.84709521 27,0.0876 C18.2988802,3.84709521 9.38336516,7.08953781 0.3,9.798 C0.3,9.798 -4.008,49.6236 27,59.9124 C58.008,49.6236 53.7,9.798 53.7,9.798 Z" id="Path" fill="#D89B0C"></path>
                <path d="M27,54.816 C16.7244,50.874 9.9132,42.5634 6.7422,30.0894 C5.4047584,24.6283783 4.78970803,19.0154637 4.9128,13.3944 C15.5202,10.0386 23.4798,6.8154 27,5.3214 C30.5202,6.8154 38.4798,10.0386 49.0872,13.3944 C49.2100981,19.0154552 48.5950505,24.6283446 47.2578,30.0894 C44.0868,42.5634 37.2756,50.874 27,54.816 Z" id="Path" fill="#FFFFFF"></path>
                <path d="M23.8848,39.7728 C23.0773697,39.7726328 22.3041784,39.4466118 21.7404,38.8686 L14.3532,31.3032 C13.5888592,30.5392408 13.294471,29.4232312 13.5825379,28.3816613 C13.8706048,27.3400913 14.6966028,26.5339468 15.7448717,26.2713008 C16.7931406,26.0086549 17.9016591,26.3301024 18.6468,27.1128 L23.8878,32.4816 L36.5568,19.545 C37.716598,18.3613433 39.6163433,18.342002 40.8,19.5018 C41.9836567,20.661598 42.002998,22.5613433 40.8432,23.745 L26.028,38.8716 C25.4637771,39.4478676 24.6912935,39.7726914 23.8848,39.7728 Z" id="Path" fill="#FFC02C"></path>
            </g>
        </g>
    </g>
</svg>