<?xml version="1.0" encoding="UTF-8"?>
<svg width="44px" height="40px" viewBox="0 0 44 40" version="1.1" xmlns="http://www.w3.org/2000/svg" xmlns:xlink="http://www.w3.org/1999/xlink">
    <!-- Generator: Sketch 52.5 (67469) - http://www.bohemiancoding.com/sketch -->
    <title>bus-stop</title>
    <desc>Created with Sketch.</desc>
    <g id="Page-1" stroke="none" stroke-width="1" fill="none" fill-rule="evenodd">
        <g id="Home" transform="translate(-1151.000000, -1553.000000)" fill="#FFC02C">
            <g id="bus-stop" transform="translate(1151.000000, 1553.000000)">
                <path d="M37.640625,0.00262711864 L6.359375,0.00262711864 C2.85278125,0.00262711864 0,2.81584746 0,6.27381356 C0,6.74186441 0.384742187,7.12127119 0.859375,7.12127119 L1.71875,7.12127119 L1.71875,39.1499153 C1.71875,39.6179661 2.10349219,39.9973729 2.578125,39.9973729 C3.05275781,39.9973729 3.4375,39.6179661 3.4375,39.1499153 L3.4375,26.6155085 L40.5625,26.6155085 L40.5625,39.1499153 C40.5625,39.6179661 40.9472422,39.9973729 41.421875,39.9973729 C41.8965078,39.9973729 42.28125,39.6179661 42.28125,39.1499153 L42.28125,7.12127119 L43.140625,7.12127119 C43.6152578,7.12127119 44,6.74186441 44,6.27381356 C44,2.8159322 41.1472188,0.00262711864 37.640625,0.00262711864 Z M3.4375,24.9205932 L3.4375,7.12127119 L25.6115234,7.12127119 L15.8524609,16.745 C15.516875,17.0759322 15.516875,17.6125424 15.8524609,17.9435593 C16.0202969,18.1089831 16.2402109,18.1917797 16.460125,18.1917797 C16.6800391,18.1917797 16.9000391,18.1089831 17.0677891,17.9435593 L28.0421797,7.12135593 L36.5255,7.12127119 L18.4760469,24.9205932 L3.4375,24.9205932 Z M40.5625,24.9205932 L20.9067891,24.9205932 L38.9563281,7.12135593 L40.5625,7.12135593 L40.5625,24.9205932 Z M1.7985,5.42635593 C2.20275,3.30661017 4.09414844,1.69754237 6.359375,1.69754237 L37.640625,1.69754237 C39.9058516,1.69754237 41.79725,3.30652542 42.2015,5.42635593 L1.7985,5.42635593 Z" id="Shape" fill-rule="nonzero"></path>
                <path d="M27.5060156,28.8898305 C27.3461719,28.7322034 27.1244531,28.6415254 26.8984375,28.6415254 C26.6724219,28.6415254 26.4507031,28.7322034 26.2908594,28.8898305 C26.1310156,29.0474576 26.0390625,29.2661017 26.0390625,29.4889831 C26.0390625,29.7118644 26.1310156,29.9305085 26.2908594,30.0881356 C26.4507031,30.2457627 26.6724219,30.3364407 26.8984375,30.3364407 C27.1244531,30.3364407 27.3461719,30.2457627 27.5060156,30.0881356 C27.6658594,29.9305085 27.7578125,29.7118644 27.7578125,29.4889831 C27.7578125,29.2661017 27.6658594,29.0474576 27.5060156,28.8898305 Z" id="Path"></path>
                <path d="M36.4878594,28.6414407 L30.1640625,28.6414407 C29.6894297,28.6414407 29.3046875,29.0208475 29.3046875,29.4888983 C29.3046875,29.9569492 29.6894297,30.3363559 30.1640625,30.3363559 L36.4878594,30.3363559 C37.1986484,30.3363559 37.7769219,30.9066102 37.7769219,31.6075424 C37.7769219,32.3084746 37.1986484,32.8787288 36.4878594,32.8787288 L7.71203125,32.8787288 C7.00124219,32.8787288 6.42296875,32.3084746 6.42296875,31.6075424 C6.42296875,30.9066102 7.00124219,30.3363559 7.71203125,30.3363559 L23.3462969,30.3363559 C23.8209297,30.3363559 24.2056719,29.9569492 24.2056719,29.4888983 C24.2056719,29.0208475 23.8209297,28.6414407 23.3462969,28.6414407 L7.71203125,28.6414407 C6.05352344,28.6414407 4.70421875,29.9720339 4.70421875,31.6075424 C4.70421875,33.2430508 6.05352344,34.5736441 7.71203125,34.5736441 L8.27182812,34.5736441 L8.27182812,39.1499153 C8.27182812,39.6179661 8.65657031,39.9973729 9.13120312,39.9973729 L13.2562031,39.9973729 C13.7308359,39.9973729 14.1155781,39.6179661 14.1155781,39.1499153 L14.1155781,34.5736441 L29.90625,34.5736441 L29.90625,39.1499153 C29.90625,39.6179661 30.2909922,39.9973729 30.765625,39.9973729 L34.890625,39.9973729 C35.3652578,39.9973729 35.75,39.6179661 35.75,39.1499153 L35.75,34.5736441 L36.4878594,34.5736441 C38.1463672,34.5736441 39.4956719,33.2430508 39.4956719,31.6075424 C39.4956719,29.9720339 38.1463672,28.6414407 36.4878594,28.6414407 Z M12.3968281,38.3024576 L9.99057812,38.3024576 L9.99057812,34.5736441 L12.3968281,34.5736441 L12.3968281,38.3024576 Z M34.03125,38.3024576 L31.625,38.3024576 L31.625,34.5736441 L34.03125,34.5736441 L34.03125,38.3024576 Z" id="Shape" fill-rule="nonzero"></path>
                <path d="M14.5002344,19.2771186 C14.3403906,19.1194915 14.1186719,19.0288136 13.8926562,19.0288136 C13.6666406,19.0288136 13.4449219,19.1194915 13.2850781,19.2771186 C13.1252344,19.4347458 13.0332812,19.6525424 13.0332812,19.8762712 C13.0332812,20.0991525 13.1252344,20.3177966 13.2850781,20.4754237 C13.4449219,20.6330508 13.6666406,20.7237288 13.8926562,20.7237288 C14.1186719,20.7237288 14.3403906,20.6330508 14.5002344,20.4754237 C14.6600781,20.3177966 14.7520312,20.0991525 14.7520312,19.8762712 C14.7520312,19.6533898 14.6600781,19.4347458 14.5002344,19.2771186 Z" id="Path"></path>
            </g>
        </g>
    </g>
</svg>