<?xml version="1.0" encoding="UTF-8"?>
<svg xmlns="http://www.w3.org/2000/svg" xmlns:xlink="http://www.w3.org/1999/xlink" width="240pt" height="240pt" viewBox="0 0 240 240" version="1.1">
<g id="surface1">
<path style=" stroke:none;fill-rule:nonzero;fill:rgb(23.529412%,35.294118%,60%);fill-opacity:1;" d="M 222.996094 235.78125 C 230.054688 235.78125 235.78125 230.054688 235.78125 222.996094 L 235.78125 16.910156 C 235.78125 9.847656 230.054688 4.125 222.996094 4.125 L 16.910156 4.125 C 9.847656 4.125 4.125 9.847656 4.125 16.910156 L 4.125 222.996094 C 4.125 230.054688 9.847656 235.78125 16.910156 235.78125 Z M 222.996094 235.78125 "/>
<path style=" stroke:none;fill-rule:nonzero;fill:rgb(100%,100%,100%);fill-opacity:1;" d="M 163.964844 235.78125 L 163.964844 146.070312 L 194.074219 146.070312 L 198.582031 111.109375 L 163.964844 111.109375 L 163.964844 88.789062 C 163.964844 78.667969 166.773438 71.769531 181.289062 71.769531 L 199.800781 71.761719 L 199.800781 40.488281 C 196.601562 40.0625 185.609375 39.113281 172.824219 39.113281 C 146.132812 39.113281 127.859375 55.40625 127.859375 85.324219 L 127.859375 111.109375 L 97.671875 111.109375 L 97.671875 146.070312 L 127.859375 146.070312 L 127.859375 235.78125 Z M 163.964844 235.78125 "/>
</g>
</svg>
