<?xml version="1.0" encoding="UTF-8"?>
<svg width="20px" height="12px" viewBox="0 0 20 12" version="1.1" xmlns="http://www.w3.org/2000/svg" xmlns:xlink="http://www.w3.org/1999/xlink">
    <!-- Generator: Sketch 52.5 (67469) - http://www.bohemiancoding.com/sketch -->
    <title>arrow</title>
    <desc>Created with Sketch.</desc>
    <g id="Page-1" stroke="none" stroke-width="1" fill="none" fill-rule="evenodd">
        <g id="2.-Gioi-thieu" transform="translate(-1265.000000, -2456.000000)" fill="#000000">
            <g id="Group-2" transform="translate(0.000000, 2348.000000)">
                <g id="left-arrow" transform="translate(1275.000000, 114.000000) rotate(-90.000000) translate(-1275.000000, -114.000000) translate(1269.000000, 104.000000)">
                    <path d="M4.03895172,10.0042276 L11.6550621,2.52195122 C11.8647724,2.31642276 11.9801379,2.04162602 11.9801379,1.74861789 C11.9801379,1.45544715 11.8647724,1.18081301 11.6550621,0.97495935 L10.9876966,0.319674797 C10.7783172,0.113495935 10.4984276,0 10.2001655,0 C9.90190345,0 9.62234483,0.113495935 9.4128,0.319674797 L0.344606897,9.22796748 C0.134234483,9.43447154 0.0190344828,9.7104065 0.019862069,10.0037398 C0.0190344828,10.298374 0.134068966,10.5739837 0.344606897,10.7806504 L9.40435862,19.6803252 C9.61390345,19.8865041 9.89346207,20 10.1918897,20 C10.4901517,20 10.7697103,19.8865041 10.9794207,19.6803252 L11.6466207,19.0250407 C12.0807724,18.5985366 12.0807724,17.9042276 11.6466207,17.4778862 L4.03895172,10.0042276 Z" id="arrow"></path>
                </g>
            </g>
        </g>
    </g>
</svg>