<?xml version="1.0" encoding="UTF-8"?>
<svg width="33px" height="40px" viewBox="0 0 33 40" version="1.1" xmlns="http://www.w3.org/2000/svg" xmlns:xlink="http://www.w3.org/1999/xlink">
    <!-- Generator: Sketch 52.5 (67469) - http://www.bohemiancoding.com/sketch -->
    <title>check</title>
    <desc>Created with Sketch.</desc>
    <g id="Page-1" stroke="none" stroke-width="1" fill="none" fill-rule="evenodd">
        <g id="2.-Gioi-thieu" transform="translate(-152.000000, -1394.000000)">
            <g id="check" transform="translate(152.000000, 1394.000000)">
                <path d="M31.2236305,26.7117309 C30.1844161,29.6255493 28.6127628,32.1591187 26.5517377,34.241333 C24.205762,36.6113281 21.1338404,38.4945679 17.4212225,39.8379516 C17.2993958,39.881897 17.1722594,39.9179077 17.0445331,39.944458 C16.8758045,39.9789429 16.7041261,39.9975586 16.5339227,40 L16.5005899,40 C16.3191773,40 16.1368796,39.9810791 15.9560569,39.944458 C15.8283306,39.9179077 15.7029641,39.881897 15.5817274,39.8388672 C11.8646847,38.4976196 8.78892844,36.6152954 6.44059278,34.2453003 C4.37868278,32.1630859 2.80732442,29.6310425 1.7695849,26.7172241 C-0.117402069,21.4193726 -0.0100292815,15.5831909 0.076399833,10.8932495 L0.077874714,10.821228 C0.0952785515,10.43396 0.106487753,10.0271606 0.112682389,9.57794187 C0.14424519,7.37243656 1.83920018,5.54779055 3.97131545,5.42480469 C8.41666367,5.16815187 11.8555403,3.66821289 14.7938358,0.70526125 L14.8194991,0.680847187 C15.3073959,0.217895469 15.9221342,-0.0091553125 16.5339227,0.000305175781 C17.1238827,0.00823976562 17.7114828,0.234985312 18.1819759,0.680847187 L18.2070491,0.70526125 C21.1459347,3.66821289 24.5848112,5.16815187 29.0301595,5.42480469 C31.1622747,5.54779055 32.8572297,7.37243656 32.8887926,9.57794187 C32.8949871,10.0302124 32.9061963,10.4364014 32.9236002,10.821228 L32.9244851,10.8517456 C33.0106193,15.5505371 33.1174021,21.3983155 31.2236305,26.7117309 Z" id="Path" fill="#FFC02C"></path>
                <path d="M31.2236305,26.7117309 C30.1844161,29.6255493 28.6127628,32.1591187 26.5517377,34.241333 C24.205762,36.6113281 21.1338404,38.4945679 17.4212225,39.8379516 C17.2993958,39.881897 17.1722594,39.9179077 17.0445331,39.944458 C16.8758045,39.9789429 16.7041261,39.9975586 16.5339227,40 L16.5339227,0.000305175781 C17.1238827,0.00823976562 17.7114828,0.234985312 18.1819759,0.680847187 L18.2070491,0.70526125 C21.1459347,3.66821289 24.5848112,5.16815187 29.0301595,5.42480469 C31.1622747,5.54779055 32.8572297,7.37243656 32.8887926,9.57794188 C32.8949871,10.0302124 32.9061963,10.4364014 32.9236002,10.821228 L32.9244851,10.8517456 C33.0106193,15.5505371 33.1174021,21.3983155 31.2236305,26.7117309 Z" id="Path" fill="#D79A0B"></path>
                <path d="M26.1358159,20 C26.1358159,25.4849243 21.8311731,29.949646 16.5339227,29.9691773 L16.5,29.9691773 C11.1871156,29.9691773 6.86388907,25.4968262 6.86388907,20 C6.86388907,14.503479 11.1871156,10.031128 16.5,10.031128 L16.5339227,10.031128 C21.8311731,10.0506592 26.1358159,14.5153809 26.1358159,20 Z" id="Path" fill="#FFFFFF"></path>
                <path d="M26.1358159,20 C26.1358159,25.4849243 21.8311731,29.949646 16.5339227,29.9691773 L16.5339227,10.031128 C21.8311731,10.0506592 26.1358159,14.5153809 26.1358159,20 Z" id="Path" fill="#E1EBF0"></path>
                <path d="M20.8736681,18.5644531 L16.5339227,23.0548095 L15.5961814,24.0249634 C15.3746514,24.2541504 15.0840961,24.3685913 14.7938358,24.3685913 C14.5032806,24.3685913 14.2130203,24.2541504 13.9911953,24.0249634 L11.9750072,21.9381714 C11.5319473,21.4797973 11.5319473,20.7373047 11.9750072,20.2786255 C12.4174771,19.8202515 13.1360483,19.8202515 13.5791082,20.2786255 L14.7938358,21.5353394 L19.269567,16.9049072 C19.7126269,16.446228 20.4311982,16.446228 20.8736681,16.9049072 C21.316728,17.3632813 21.316728,18.1066895 20.8736681,18.5644531 Z" id="Path" fill="#FFC02C"></path>
                <path d="M20.8736681,18.5644531 L16.5339227,23.0548095 L16.5339227,19.7348023 L19.269567,16.9049072 C19.7126269,16.446228 20.4311982,16.446228 20.8736681,16.9049072 C21.316728,17.3632813 21.316728,18.1066895 20.8736681,18.5644531 Z" id="Path" fill="#D79A0B"></path>
            </g>
        </g>
    </g>
</svg>