<?xml version="1.0" encoding="UTF-8"?>
<svg width="16px" height="16px" viewBox="0 0 16 16" version="1.1" xmlns="http://www.w3.org/2000/svg" xmlns:xlink="http://www.w3.org/1999/xlink">
    <!-- Generator: Sketch 52.5 (67469) - http://www.bohemiancoding.com/sketch -->
    <title>face</title>
    <desc>Created with Sketch.</desc>
    <g id="Page-1" stroke="none" stroke-width="1" fill="none" fill-rule="evenodd">
        <g id="1.-Trang-chu" transform="translate(-141.000000, -3403.000000)" fill="#FFC02C">
            <g id="Group-11" transform="translate(0.000000, 3242.000000)">
                <g id="Group-10">
                    <path d="M155.212582,161 L142.787419,161 C142.289947,161 141.867681,161.176426 141.520607,161.529284 C141.173534,161.882142 141,162.301515 141,162.787418 L141,175.229935 C141,175.715838 141.173534,176.132319 141.520607,176.479393 C141.867681,176.826466 142.289947,177 142.787419,177 L148.999999,177 L148.999999,170.787419 L147.229936,170.787419 L147.229936,168.583515 L148.999999,168.583515 L148.999999,166.761388 C148.999999,165.801152 149.274762,165.014464 149.824294,164.401302 C150.373827,163.788139 151.215468,163.481561 152.349241,163.481561 L153.94577,163.481561 L153.94577,165.806943 L152.887201,165.806943 C152.447576,165.806943 152.135214,165.942877 151.95011,166.21475 C151.765003,166.486625 151.672452,166.772957 151.672452,167.073753 L151.672452,168.583515 L153.94577,168.583515 L153.442515,170.787419 L151.672452,170.787419 L151.672452,177 L155.212582,177 C155.710053,177 156.132319,176.826466 156.479393,176.479393 C156.826466,176.132319 157,175.715838 157,175.229935 L157,162.787418 C157,162.301515 156.826466,161.882142 156.479393,161.529284 C156.132319,161.176426 155.710053,161 155.212582,161 Z" id="face"></path>
                </g>
            </g>
        </g>
    </g>
</svg>