<?xml version="1.0" encoding="UTF-8"?>
<svg width="20px" height="32px" viewBox="0 0 20 32" version="1.1" xmlns="http://www.w3.org/2000/svg" xmlns:xlink="http://www.w3.org/1999/xlink">
    <!-- Generator: Sketch 52.5 (67469) - http://www.bohemiancoding.com/sketch -->
    <title>price</title>
    <desc>Created with Sketch.</desc>
    <g id="Page-1" stroke="none" stroke-width="1" fill="none" fill-rule="evenodd">
        <g id="Home" transform="translate(-215.000000, -731.000000)" fill="#000000">
            <g id="Group-3" transform="translate(215.000000, 731.000000)">
                <path d="M7.65799257,8.1256205 L12.3048351,8.1256205 L12.3048351,6.36077934 L7.65799257,6.36077934 L7.65799257,8.1256205 Z M12.3048351,8.67713572 L7.65799257,8.67713572 C7.65799257,8.67713572 7.2552684,9.10608154 6.44981532,9.96399671 C5.64435747,10.8219119 4.76456446,11.9433061 3.81040868,13.3282264 C2.85625291,14.7131419 1.98265576,16.2880015 1.18959108,18.052852 C0.396526394,19.8177026 0,21.6192948 0,23.4576757 C0,25.3941112 0.415113564,26.9138183 1.2453534,28.0168511 C2.0755928,29.1198825 2.99256006,29.9532711 3.99628277,30.5170428 C5.00000357,31.0808144 5.91697368,31.4362301 6.74721309,31.583301 C7.57745249,31.7303718 7.99256743,31.8039061 7.99256743,31.8039061 C7.99256743,31.8039061 8.4572455,31.852929 9.38661591,31.9509762 C10.3159911,32.0490234 11.1524116,32.0000005 11.8959108,31.8039061 C11.8959108,31.8039061 12.3172211,31.7181161 13.1598513,31.5465334 C14.0024815,31.3749508 14.9318424,30.9950234 15.947953,30.4067402 C16.9640684,29.818457 17.8934293,28.9789399 18.7360595,27.888165 C19.5786897,26.7973906 20,25.3328313 20,23.4944456 C20,21.6315499 19.5972758,19.8177026 18.7918228,18.052852 C17.9863649,16.2880015 17.1003765,14.7131419 16.133829,13.3282264 C15.1672815,11.9433061 14.2874885,10.8219119 13.4944262,9.96399671 C12.7013591,9.10608154 12.3048351,8.67713572 12.3048351,8.67713572 Z M12.6394052,24.3768662 C12.5402742,24.5729612 12.4287477,24.7445415 12.3048351,24.8916115 C12.1809178,25.0386816 12.0322189,25.1857517 11.8587384,25.3328218 C11.7100348,25.4553818 11.5365543,25.5595545 11.3382876,25.6453446 C11.1400256,25.7311394 10.9417588,25.8107973 10.743492,25.8843371 C10.7187105,25.8843371 10.6877335,25.8904646 10.6505564,25.9027196 C10.6133841,25.9149747 10.5824024,25.9211022 10.5576208,25.9211022 L10.5576208,27.2079656 L9.40520208,27.2079656 L9.40520208,26.0681723 C9.38042052,26.0681723 9.36802974,26.0681723 9.36802974,26.0681723 C9.19454454,26.0681723 9.02726424,26.0620448 8.86616981,26.0497897 C8.70508015,26.0375347 8.56257665,26.0191474 8.43866409,25.9946373 C8.28996045,25.9701272 8.1536571,25.9394848 8.02973978,25.9027196 C7.90582245,25.8659498 7.78190989,25.8353121 7.65799257,25.8107973 C7.55886156,25.7617771 7.46592595,25.7188797 7.37918097,25.6821145 C7.29244074,25.6453446 7.21189591,25.6024519 7.13754647,25.553427 C7.06319703,25.5289169 7.00123836,25.4982745 6.95167524,25.4615093 C6.90210736,25.4247395 6.85253948,25.3818468 6.80297636,25.3328218 C6.77819004,25.3083117 6.75340848,25.2715418 6.72862216,25.2225169 C6.70384059,25.1734967 6.69144981,25.1244717 6.69144981,25.0754468 C6.66666825,25.0264266 6.64807732,24.9590191 6.63568654,24.873229 C6.62329576,24.7874342 6.61710037,24.6832615 6.61710037,24.5607062 C6.61710037,24.4871664 6.62329576,24.4197636 6.63568654,24.3584836 C6.64807732,24.2972036 6.65427747,24.2297961 6.65427747,24.1562611 C6.65427747,24.1072361 6.66047286,24.0643434 6.67286364,24.0275736 C6.68525442,23.9908084 6.69144981,23.960166 6.69144981,23.9356559 C6.71623138,23.886631 6.7348223,23.8559933 6.74721309,23.8437383 C6.75960387,23.8314832 6.77819004,23.8130959 6.80297636,23.7885858 C6.80297636,23.7640757 6.81536714,23.7518159 6.8401487,23.7518159 C6.86493026,23.7518159 6.88971658,23.7518159 6.91449814,23.7518159 C6.9392797,23.7518159 6.9764568,23.7640757 7.02601993,23.7885858 C7.07558781,23.8130959 7.13754647,23.8376108 7.21189591,23.8621209 C7.26146379,23.9111458 7.32961309,23.9540385 7.41635807,23.9908084 C7.50309829,24.0275736 7.5960339,24.070471 7.69516967,24.1194959 C7.79430067,24.1685161 7.90582245,24.2175411 8.02973978,24.266566 C8.1536571,24.3155862 8.27756967,24.3646112 8.40148699,24.4136361 C8.55018587,24.4381462 8.70508015,24.4626563 8.86616981,24.4871664 C9.02726424,24.5116812 9.19454454,24.5239363 9.36802974,24.5239363 C9.49194706,24.5239363 9.60346885,24.5178088 9.70259985,24.5055537 C9.80173561,24.4932987 9.90086662,24.4749114 9.99999762,24.4504013 C10.0991334,24.4258911 10.1858736,24.3891213 10.260223,24.3400963 C10.3345725,24.2910761 10.4089219,24.2420512 10.4832714,24.1930262 C10.5576208,24.144006 10.6195795,24.0888535 10.6691474,24.0275736 C10.7187105,23.9662936 10.7558876,23.8988907 10.7806691,23.8253557 C10.8054507,23.7518159 10.830237,23.6721581 10.8550186,23.5863633 C10.8798001,23.5005732 10.8921909,23.4086555 10.8921909,23.3106057 C10.8921909,23.2125605 10.8736048,23.1145153 10.8364324,23.0164655 C10.7992553,22.9184203 10.7558876,22.8326302 10.7063197,22.7590951 C10.6567518,22.6855601 10.5886025,22.612025 10.5018575,22.53849 C10.4151173,22.4649549 10.3221817,22.403675 10.2230507,22.3546547 C10.1486965,22.281115 10.0557609,22.2198397 9.94423911,22.1708148 C9.83271257,22.1217898 9.71499539,22.0727696 9.59107807,22.0237447 C9.46716074,21.9502096 9.34324818,21.8889296 9.21933086,21.8399047 C9.09541353,21.7908845 8.97150097,21.7296045 8.84758364,21.6560694 C8.72366632,21.6070445 8.59975375,21.5518967 8.47583643,21.4906167 C8.35191911,21.4293367 8.22800654,21.3619292 8.10408922,21.2883942 C7.9801719,21.2148591 7.86245472,21.129069 7.75092818,21.0310239 C7.63940639,20.932974 7.53407524,20.8349288 7.43494424,20.7368837 C7.33581323,20.6388338 7.24907301,20.5285336 7.17471881,20.4059736 C7.10036937,20.2834136 7.03841546,20.1486033 6.98884758,20.0015332 C6.91449814,19.8544584 6.86493026,19.6951379 6.8401487,19.523553 C6.81536714,19.3519681 6.80297636,19.1681328 6.80297636,18.9720425 C6.80297636,18.7514326 6.82156253,18.5369597 6.85873487,18.3286096 C6.89591197,18.1202596 6.96406602,17.9302968 7.06319703,17.7587118 C7.13754647,17.5871269 7.23048208,17.433934 7.34200862,17.299119 C7.45353041,17.1643039 7.58364312,17.0356164 7.73234201,16.9130611 C7.88104089,16.7905012 8.04213056,16.692456 8.215611,16.6189209 C8.38909621,16.5453812 8.57496743,16.4718509 8.7732342,16.3983111 C8.8723652,16.373801 8.97150097,16.3492909 9.07063197,16.3247808 C9.16976297,16.3002659 9.28128952,16.2880109 9.40520208,16.2880109 L9.40520208,15.0746802 L10.5576208,15.0746802 L10.5576208,16.2880109 C10.5824024,16.2880109 10.6071887,16.2880109 10.6319703,16.2880109 C10.6567518,16.2880109 10.6815381,16.2880109 10.7063197,16.2880109 C10.830237,16.312521 10.9417588,16.3370358 11.0408898,16.3615459 C11.1400256,16.386056 11.2391566,16.4105709 11.3382876,16.435081 C11.4374233,16.4595911 11.530359,16.4902334 11.6170992,16.5269986 C11.7038442,16.5637685 11.7843842,16.5944061 11.8587384,16.6189209 C11.9330879,16.6679412 12.0012372,16.7047111 12.0631958,16.7292212 C12.1251545,16.7537313 12.168527,16.7782461 12.1933086,16.8027562 C12.2180901,16.8272663 12.236681,16.8517812 12.2490718,16.8762913 C12.2614626,16.9008014 12.267658,16.9130611 12.267658,16.9130611 C12.2924396,16.9375713 12.3048351,16.9620814 12.3048351,16.9865915 C12.3048351,17.0111063 12.3048351,17.0356164 12.3048351,17.0601312 C12.3296167,17.0846414 12.3420074,17.115279 12.3420074,17.1520489 C12.3420074,17.188814 12.3420074,17.2317115 12.3420074,17.2807317 C12.3420074,17.3297566 12.3420074,17.3787815 12.3420074,17.4278018 C12.3420074,17.4768267 12.3420074,17.5381067 12.3420074,17.6116418 C12.3420074,17.6851768 12.3420074,17.7464568 12.3420074,17.7954817 C12.3420074,17.844502 12.3420074,17.9057819 12.3420074,17.979317 C12.3420074,18.0038271 12.335812,18.040597 12.3234213,18.0896219 C12.3110305,18.1386421 12.3048351,18.175412 12.3048351,18.1999221 C12.3048351,18.2244323 12.2986349,18.2489471 12.2862442,18.2734572 C12.2738534,18.2979673 12.2552672,18.3224821 12.2304809,18.3469922 C12.2056993,18.3715023 12.1871132,18.3837621 12.1747224,18.3837621 C12.1623316,18.3837621 12.1437407,18.3837621 12.1189591,18.3837621 C12.0693912,18.3837621 12.0260235,18.3776299 11.9888464,18.3653748 C11.9516741,18.3531198 11.9083016,18.3224821 11.8587384,18.2734572 C11.7843842,18.2489471 11.7100396,18.2183047 11.6356854,18.1815396 C11.5613359,18.1447697 11.4869912,18.101877 11.4126418,18.052852 C11.313506,18.0283419 11.214375,17.9976996 11.115244,17.9609344 C11.0161083,17.9241645 10.9169772,17.8812718 10.8178462,17.8322469 C10.6939289,17.8077368 10.5700116,17.7893495 10.4460943,17.7770944 C10.3221817,17.7648394 10.1858736,17.7587118 10.0371747,17.7587118 C9.93804372,17.7587118 9.8451081,17.7648394 9.75836312,17.7770944 C9.6716229,17.7893495 9.57868729,17.8077368 9.47955628,17.8322469 C9.40520208,17.856757 9.33705279,17.8873994 9.27509413,17.9241645 C9.21313546,17.9609344 9.15737219,17.9915721 9.10780431,18.0160822 C9.05824119,18.0651071 9.00867331,18.1202596 8.95910543,18.1815396 C8.9095423,18.2428195 8.8723652,18.2979673 8.84758364,18.3469922 C8.82280208,18.4205273 8.80421115,18.4879348 8.79182037,18.5492148 C8.77942959,18.6104948 8.7732342,18.6778976 8.7732342,18.7514326 C8.7732342,18.8739926 8.79182037,18.9781653 8.82899747,19.0639601 C8.86616981,19.1497502 8.9095423,19.2294128 8.95910543,19.3029479 C9.00867331,19.3764829 9.07682736,19.450018 9.16356758,19.523553 C9.25031257,19.5970881 9.34324818,19.6583681 9.44237918,19.707393 C9.51672862,19.780928 9.60966424,19.8422033 9.72119078,19.8912283 C9.83271257,19.9402532 9.9504345,20.0015285 10.0743518,20.0750635 C10.1982644,20.1240885 10.3283771,20.1731134 10.4646852,20.2221336 C10.6009933,20.2711586 10.7311013,20.3324385 10.8550186,20.4059736 C10.9789359,20.4549985 11.1028485,20.5162738 11.2267658,20.5898136 C11.3506831,20.6633486 11.4745957,20.736879 11.598513,20.810414 C11.7224303,20.8839538 11.8401475,20.9636116 11.9516741,21.0494064 C12.0631958,21.1351965 12.168527,21.2271142 12.267658,21.3251641 C12.366789,21.4232092 12.4535292,21.5335094 12.5278787,21.6560694 C12.6022329,21.7786294 12.6765775,21.9134397 12.7509317,22.0605145 C12.8004949,22.2075846 12.837672,22.3607776 12.8624535,22.5201074 C12.8872351,22.6794326 12.8996306,22.8571403 12.8996306,23.0532353 C12.8996306,23.2983553 12.8810397,23.5312108 12.8438674,23.7518159 C12.8066903,23.9724258 12.7385362,24.1807712 12.6394052,24.3768662 Z M12.267658,5.80926412 L14.609663,0 C14.609663,0 14.3246608,0.208345382 13.7546468,0.625045559 C13.1846329,1.04174574 12.6889731,1.25009112 12.267658,1.25009112 C11.8215613,1.25009112 11.3259016,1.04787326 10.7806691,0.643428144 C10.2354367,0.238983025 9.96282528,0.0367651711 9.96282528,0.0367651711 C9.96282528,0.0367651711 9.67782305,0.238983025 9.10780431,0.643428144 C8.53779033,1.04787326 8.04213532,1.25009112 7.62081546,1.25009112 C7.17471881,1.25009112 6.67905903,1.05400079 6.13382662,0.66181073 C5.58859896,0.269625373 5.31598751,0.0735303422 5.31598751,0.0735303422 L7.69516967,5.80926412 L12.267658,5.80926412 Z" id="price"></path>
            </g>
        </g>
    </g>
</svg>