<?xml version="1.0" encoding="UTF-8"?>
<svg width="36px" height="40px" viewBox="0 0 36 40" version="1.1" xmlns="http://www.w3.org/2000/svg" xmlns:xlink="http://www.w3.org/1999/xlink">
    <!-- Generator: Sketch 52.5 (67469) - http://www.bohemiancoding.com/sketch -->
    <title>passenger</title>
    <desc>Created with Sketch.</desc>
    <g id="Page-1" stroke="none" stroke-width="1" fill="none" fill-rule="evenodd">
        <g id="Home" transform="translate(-553.000000, -1553.000000)" fill="#FFC02C">
            <g id="passenger" transform="translate(553.000000, 1553.000000)">
                <path d="M32.7287948,17.6182031 C32.5818079,17.4728125 32.3797205,17.3892969 32.1730742,17.3892969 C31.9655633,17.3892969 31.7635546,17.4728125 31.6173537,17.6182031 C31.4703668,17.7635156 31.3863406,17.9650781 31.3863406,18.1705469 C31.3863406,18.3760156 31.4703668,18.5775781 31.6173537,18.7228125 C31.7628472,18.868125 31.9656419,18.9517969 32.1730742,18.9517969 C32.3797991,18.9517969 32.5825939,18.8682031 32.7287948,18.7228125 C32.874917,18.5775781 32.9591004,18.3760156 32.9591004,18.1705469 C32.9591004,17.9650781 32.8749956,17.7635156 32.7287948,17.6182031 Z" id="Path"></path>
                <path d="M35.3512926,1.61414063 C34.8237904,0.815703125 34.015048,0.26921875 33.0740175,0.07546875 C32.1333799,-0.118203125 31.1724629,0.06359375 30.3692227,0.58796875 C29.5659039,1.11226563 29.0160786,1.91609375 28.8211441,2.85140625 L28.7375109,3.25273438 C28.1272402,1.47125 26.428559,0.185703125 24.4323668,0.185703125 C21.924786,0.185703125 19.8848122,2.21335938 19.8848122,4.705625 L19.8848122,5.38539062 C19.8848122,6.68585937 20.4410044,7.8590625 21.3284279,8.684375 C21.0019127,8.81054687 20.6859301,8.97078125 20.3861397,9.16648437 C19.2688821,9.89570312 18.5042358,11.0136719 18.2319563,12.3191406 L17.5906376,15.4949219 L16.1168384,16.968125 L9.98151092,16.968125 C8.57908297,16.968125 7.43816594,18.1021875 7.43816594,19.4960156 C7.43816594,19.8378125 7.50710044,20.16375 7.63137118,20.4614062 L6.99421834,20.4614062 C5.5171179,20.4614062 4.22528384,21.4536719 3.85286463,22.8745312 L2.9251179,26.4134375 C2.81562445,26.8310156 3.06746725,27.2576562 3.48751965,27.3664062 C3.55401747,27.3836719 3.62059389,27.391875 3.68622707,27.391875 C4.03530131,27.3917969 4.35419214,27.1589062 4.44631441,26.8074219 L5.37406114,23.2685156 C5.56616594,22.5357031 6.23248035,22.0239062 6.99421834,22.0239062 L18.5087948,22.0239062 C18.7186638,22.0239062 18.9198079,21.9405469 19.067345,21.7922656 L23.046524,17.7967969 C23.3519738,17.4901562 23.3494585,16.9954687 23.0409432,16.6919531 C22.7323493,16.3882812 22.2347162,16.3908594 21.929345,16.6975 L18.1808646,20.4613281 L9.98151092,20.4613281 C9.44599127,20.4613281 9.01021834,20.0282031 9.01021834,19.4959375 C9.01021834,18.9636719 9.44599127,18.5305469 9.98151092,18.5305469 L16.4437467,18.5305469 C16.6529869,18.5305469 16.8535808,18.4475781 17.0011179,18.3001562 L21.5004105,13.8025 C21.8065677,13.4965625 21.8050742,13.001875 21.4972664,12.6975781 C21.1893799,12.3934375 20.6917467,12.3946875 20.3856681,12.7007812 L19.5994061,13.4867969 L19.7721747,12.6314062 C19.9581485,11.7392969 20.4826638,10.9725781 21.2489607,10.4724219 C22.015179,9.97234375 22.9315284,9.79867188 23.8286987,9.98367188 C24.726262,10.1685156 25.4976681,10.6897656 26.0008035,11.45125 C26.5039389,12.2128125 26.6785939,13.1234375 26.4926201,14.0155469 C26.4913624,14.0214062 26.4909694,14.0271875 26.489869,14.0330469 L24.5193013,23.4839844 C24.2935546,24.5664062 23.3224192,25.3521094 22.2102707,25.3521094 L11.0359651,25.3521094 C9.19296943,25.3521094 7.64921397,26.7629687 7.45883843,28.5544531 C7.44358952,28.59 7.42991266,28.6264844 7.41985153,28.665 L5.01225328,37.8494531 C4.92154585,38.195625 4.60674236,38.4373437 4.24682096,38.4373437 L2.42127511,38.4373437 C2.17438428,38.4373437 1.94627948,38.3260156 1.79536245,38.131875 C1.64436681,37.9378125 1.59358952,37.6903125 1.65576419,37.4529687 L2.96850655,32.4450781 C3.078,32.0275 2.8260786,31.6008594 2.4061048,31.4921094 C1.9858952,31.3830469 1.55672489,31.6335937 1.44731004,32.0510937 L0.134567686,37.0589844 C-0.0513275109,37.7682031 0.100611354,38.5075781 0.551554585,39.0874219 C1.00241921,39.6673437 1.68398253,39.9999219 2.42135371,39.9999219 L4.24682096,39.9999219 C5.32218341,39.9999219 6.26250655,39.2775781 6.53352838,38.2434375 L8.35679476,31.2879687 C8.39287336,31.3278125 8.42958079,31.3672656 8.46762445,31.4058594 C9.15649782,32.10375 10.1129345,32.5039844 11.0916157,32.5039844 L14.9178341,32.5039844 L12.2297031,38.9183594 C12.1286987,39.1594531 12.1555808,39.4347656 12.30131,39.6521875 C12.4470393,39.8694531 12.6925153,40 12.9552838,40 L25.0807598,40 C25.343607,40 25.5890044,39.8694531 25.7347336,39.6521875 C25.8804629,39.4348437 25.907345,39.1594531 25.8063406,38.9183594 L23.1182096,32.5039844 L27.0584803,32.5039844 C28.7555109,32.5039844 30.2370131,31.3052344 30.5812926,29.65375 L32.3019825,21.4011719 C32.3900961,20.9786719 32.116952,20.5652344 31.6917904,20.4776562 C31.2670218,20.3905469 30.8507424,20.6615625 30.7626288,21.0841406 L29.0419389,29.3367969 C28.8481048,30.2666406 28.0138952,30.9415625 27.0584017,30.9415625 L11.0915371,30.9415625 C10.5322795,30.9415625 9.98489083,30.7120312 9.58975546,30.3116406 C9.20609607,29.9229687 9.00047162,29.4176562 9.01061135,28.8885937 C9.03159825,27.8001562 9.94016594,26.9146094 11.0360437,26.9146094 L22.2104279,26.9146094 C24.0641135,26.9146094 25.6825415,25.6051562 26.0587336,23.8010937 L30.3605764,3.16835938 C30.4703057,2.64171875 30.7799214,2.18914063 31.2322009,1.89390625 C31.684559,1.59882813 32.2255022,1.49640625 32.7552052,1.60546875 C33.2850655,1.71453125 33.7404105,2.02226563 34.0374498,2.47179688 C34.3344105,2.92132813 34.4375371,3.45898438 34.3276507,3.98554688 L31.992131,15.1871094 C31.9040175,15.6096094 32.1771616,16.0230469 32.6023231,16.110625 C33.0272489,16.1982031 33.4434498,15.9267187 33.5314847,15.5041406 L35.8670044,4.30257813 C36.0619389,3.36726562 35.8788734,2.41257813 35.3512926,1.61414063 Z M21.4151266,32.5039062 L23.9017991,38.4374219 L14.1340873,38.4374219 L16.6207598,32.5039062 L21.4151266,32.5039062 Z M24.4322882,8.34273438 C22.7915371,8.34273438 21.456786,7.01601563 21.456786,5.3853125 L21.456786,4.70554688 C21.456786,3.07476563 22.7916157,1.74804688 24.4322882,1.74804688 C26.0730393,1.74804688 27.4077904,3.07476563 27.4077904,4.70554688 L27.4077904,5.3853125 C27.407869,7.01601563 26.0730393,8.34273438 24.4322882,8.34273438 Z M27.2317991,10.4745313 C26.9717031,10.1042969 26.6679039,9.7746875 26.32669,9.49289063 C26.8097817,9.271875 27.2476769,8.96976563 27.6219825,8.60320313 L27.2317991,10.4745313 Z" id="Shape" fill-rule="nonzero"></path>
                <path d="M3.53295197,28.7610156 C3.38682969,28.6157813 3.18403493,28.5321094 2.97723144,28.5321094 C2.77050655,28.5321094 2.56771179,28.6157031 2.42158952,28.7610156 C2.27538865,28.9071094 2.19120524,29.1078906 2.19120524,29.3133594 C2.19120524,29.5196094 2.27531004,29.7203906 2.42158952,29.8657031 C2.56771179,30.0117188 2.77050655,30.0946094 2.97723144,30.0946094 C3.18403493,30.0946094 3.38596507,30.0117188 3.53295197,29.8657031 C3.67915284,29.7210938 3.76325764,29.5195312 3.76325764,29.3133594 C3.76325764,29.1078906 3.67923144,28.9063281 3.53295197,28.7610156 Z" id="Path"></path>
            </g>
        </g>
    </g>
</svg>