<?xml version="1.0" encoding="UTF-8"?>
<svg width="43px" height="60px" viewBox="0 0 43 60" version="1.1" xmlns="http://www.w3.org/2000/svg" xmlns:xlink="http://www.w3.org/1999/xlink">
    <!-- Generator: Sketch 52.5 (67469) - http://www.bohemiancoding.com/sketch -->
    <title>hourglass</title>
    <desc>Created with Sketch.</desc>
    <g id="Page-1" stroke="none" stroke-width="1" fill="none" fill-rule="evenodd">
        <g id="2.-Gioi-thieu" transform="translate(-1099.000000, -1878.000000)">
            <g id="hourglass" transform="translate(1099.000000, 1878.000000)">
                <polygon id="Path" fill="#FFC02C" points="3.70755556 0.0876 39.2918472 0.0876 39.2918472 6.9996 3.70755556 6.9996"></polygon>
                <polygon id="Path" fill="#FFC02C" points="3.70755556 52.9998 39.2918472 52.9998 39.2918472 59.9118 3.70755556 59.9118"></polygon>
                <path d="M25.4255417,29.3934 C22.8704249,30.2021855 20.1295751,30.2021855 17.5744583,29.3934 C12.7285516,27.8587761 9.20867577,23.6395284 8.551625,18.5778 L7.04722222,7.0002 L35.9527778,7.0002 L34.4495694,18.5802 C33.7914556,23.6413268 30.2712059,27.8595279 25.4255417,29.3934 Z" id="Path" fill="#E1E1E1"></path>
                <path d="M35.9527778,52.998 L7.04722222,52.998 L7.81166667,47.136 L7.81166667,47.13 L8.55222222,41.424 C9.39704944,34.8873899 14.9390322,29.9958447 21.5,29.9958447 C28.0609678,29.9958447 33.6029506,34.8873899 34.4477778,41.424 L35.9527778,52.998 Z" id="Path" fill="#E1E1E1"></path>
                <path d="M0.148708333,0.0876 L42.8500972,0.0876 C42.8500972,1.9962961 41.3099568,3.5436 39.4100972,3.5436 L3.58870833,3.5436 C1.68884879,3.5436 0.148708333,1.9962961 0.148708333,0.0876 Z" id="Path" fill="#D79A0B"></path>
                <path d="M0.149902778,56.4564 L42.8512917,56.4564 C42.8512917,58.3650961 41.3111512,59.9124 39.4112917,59.9124 L3.58990278,59.9124 C2.67755805,59.9124 1.80258059,59.5482868 1.15745545,58.900161 C0.512330309,58.2520353 0.149902778,57.3729882 0.149902778,56.4564 Z" id="Path" fill="#D79A0B" transform="translate(21.500597, 58.184400) rotate(-180.000000) translate(-21.500597, -58.184400) "></path>
                <path d="M31.6527778,45.0474 C31.3801535,43.303408 30.5750303,41.6875589 29.3486944,40.4232 C29.3050972,40.3776 29.2615,40.3326 29.2167083,40.2876 C26.1889841,37.2747043 23.5939785,33.8525895 21.5065694,30.12 L21.5,30.1074 C19.5059136,33.807107 16.9644598,37.1813297 13.9624583,40.1148 C12.5665319,41.4191818 11.6457958,43.1557832 11.3472222,45.0474 L10.7667222,48.9672 L10.7667222,48.9714 L10.1695,52.998 L32.8316944,52.998 L31.6527778,45.0474 Z" id="Path" fill="#848484"></path>
                <path d="M24.1875,29.5842 C22.4382881,30.1383626 20.5617119,30.1383626 18.8125,29.5842 C15.4938089,28.5338787 13.0830488,25.6446923 12.6330417,22.1784 L11.6040278,14.25 L31.3959722,14.25 L30.3669583,22.1784 C29.9169512,25.6446923 27.5061911,28.5338787 24.1875,29.5842 Z" id="Path" fill="#494949"></path>
            </g>
        </g>
    </g>
</svg>