<?xml version="1.0" encoding="UTF-8"?>
<svg width="40px" height="40px" viewBox="0 0 40 40" version="1.1" xmlns="http://www.w3.org/2000/svg" xmlns:xlink="http://www.w3.org/1999/xlink">
    <!-- Generator: Sketch 52.5 (67469) - http://www.bohemiancoding.com/sketch -->
    <title>traffic</title>
    <desc>Created with Sketch.</desc>
    <g id="Page-1" stroke="none" stroke-width="1" fill="none" fill-rule="evenodd">
        <g id="Home" transform="translate(-251.000000, -1553.000000)" fill="#FFC02C">
            <g id="traffic" transform="translate(251.000000, 1553.000000)">
                <path d="M15.1915625,21.89375 L13.351875,21.89375 C12.9203906,21.89375 12.570625,22.2435938 12.570625,22.675 C12.570625,23.1064062 12.9203906,23.45625 13.351875,23.45625 L15.1915625,23.45625 C15.6230469,23.45625 15.9728125,23.1064062 15.9728125,22.675 C15.9728125,22.2435938 15.6230469,21.89375 15.1915625,21.89375 Z" id="Path"></path>
                <path d="M8.86085937,20.33125 C7.56851562,20.33125 6.51710937,21.3826563 6.51710937,22.675 C6.51710937,23.9673437 7.56851562,25.01875 8.86085937,25.01875 C10.1532031,25.01875 11.2046094,23.9673437 11.2046094,22.675 C11.2046094,21.3826563 10.1532031,20.33125 8.86085937,20.33125 Z M8.86085937,23.45625 C8.43007812,23.45625 8.07960937,23.1057812 8.07960937,22.675 C8.07960937,22.2442188 8.43007812,21.89375 8.86085937,21.89375 C9.29164062,21.89375 9.64210937,22.2442188 9.64210937,22.675 C9.64210937,23.1057812 9.29171875,23.45625 8.86085937,23.45625 Z" id="Shape" fill-rule="nonzero"></path>
                <path d="M17.7492187,11.725 C17.6039062,11.5789063 17.4023437,11.4960156 17.196875,11.4960156 C16.990625,11.4960156 16.7898437,11.5789063 16.6445312,11.725 C16.4992187,11.8702344 16.415625,12.0717969 16.415625,12.2772656 C16.415625,12.4828125 16.4992187,12.6842969 16.6445312,12.8296094 C16.7898437,12.9749219 16.990625,13.0585156 17.196875,13.0585156 C17.4023437,13.0585156 17.6039062,12.975 17.7492187,12.8296094 C17.8945312,12.6842187 17.978125,12.4828125 17.978125,12.2772656 C17.978125,12.0717969 17.8945312,11.8702344 17.7492187,11.725 Z" id="Path"></path>
                <path d="M39.8739844,28.4060156 C39.8741406,28.4059375 39.8742969,28.4059375 39.8744531,28.4058594 L35.9324219,22.3199219 C35.4678125,21.6025781 34.6801562,21.174375 33.8254687,21.174375 L30,21.174375 L30,16.8017969 L31.1340625,16.8017969 C32.0596094,16.8017969 32.8125,16.0488281 32.8125,15.1233594 L32.8125,10.8996875 C32.8125,9.97414062 32.0595312,9.22125 31.1340625,9.22125 L30,9.22125 L30,2.94515625 C30,1.3225 28.6799219,0.002421875 27.0572656,0.002421875 L5.75523438,0.002421875 C4.13257813,0.002421875 2.8125,1.32257812 2.8125,2.94515625 L2.8125,9.22117187 L1.6784375,9.22117187 C0.75296875,9.22117187 0,9.97414062 0,10.8996875 L0,15.1233594 C0,16.0489062 0.75296875,16.8017969 1.6784375,16.8017969 L2.8125,16.8017969 L2.8125,23.1275 C2.8125,25.5864062 4.65476563,27.621875 7.03125,27.9296094 L7.03125,28.7525 C7.03125,30.0448437 8.08265625,31.09625 9.375,31.09625 C10.6673438,31.09625 11.71875,30.0448437 11.71875,28.7525 L11.71875,27.97125 L13.8445313,27.97125 L13.5629687,28.4058594 C13.563125,28.4059375 13.5632812,28.4059375 13.5634375,28.4060156 C13.4839844,28.5282812 13.4374219,28.6739062 13.4374219,28.830625 L13.4374219,34.6875 C13.4374219,35.8923437 14.4176563,36.8725781 15.6225,36.8725781 L17.0866406,36.8725781 L17.0866406,37.6538281 C17.0866406,38.9461719 18.1380469,39.9975781 19.4303906,39.9975781 C20.7227344,39.9975781 21.7741406,38.9461719 21.7741406,37.6538281 L21.7741406,36.8725781 L31.6632813,36.8725781 L31.6632813,37.6538281 C31.6632813,38.9461719 32.7146875,39.9975781 34.0070313,39.9975781 C35.299375,39.9975781 36.3507813,38.9461719 36.3507813,37.6538281 L36.3507813,36.8725781 L37.8149219,36.8725781 C39.0197656,36.8725781 40,35.8923437 40,34.6875 L40,28.8305469 C40,28.6739062 39.9534375,28.5283594 39.8739844,28.4060156 Z M30,10.7836719 L31.1340625,10.7836719 C31.1979688,10.7836719 31.25,10.8357031 31.25,10.8996094 L31.25,15.1232813 C31.25,15.1871875 31.1979688,15.2392188 31.1340625,15.2392188 L30,15.2392188 L30,10.7836719 Z M2.8125,15.2392969 L1.6784375,15.2392969 C1.61453125,15.2392969 1.5625,15.1872656 1.5625,15.1233594 L1.5625,10.8996875 C1.5625,10.8357813 1.61453125,10.78375 1.6784375,10.78375 L2.8125,10.78375 L2.8125,15.2392969 Z M31.2860937,22.7367969 L29.4475781,24.5753125 C29.1425,24.8803906 29.1424219,25.3750781 29.4475781,25.6802344 C29.6001562,25.8327344 29.8000781,25.9090625 30,25.9090625 C30.1999219,25.9090625 30.3999219,25.8327344 30.5524219,25.6802344 L33.4958594,22.7367969 L33.8254687,22.7367969 C34.1482031,22.7367969 34.4455469,22.8985156 34.6210156,23.1692969 L37.781875,28.0492969 L22.8790625,28.0492969 L28.160625,22.7677344 C28.1705469,22.7578125 28.1792969,22.7471875 28.1885156,22.7367969 L31.2860937,22.7367969 Z M20.6692969,28.0492969 L15.655625,28.0492969 L18.8164844,23.1692969 C18.9919531,22.8984375 19.2892969,22.7367969 19.6120313,22.7367969 L25.981875,22.7367969 L20.6692969,28.0492969 Z M18.773125,10.7007031 C18.9257031,10.8532031 19.125625,10.9295312 19.3255469,10.9295312 C19.5254688,10.9295312 19.7254688,10.8532031 19.8779688,10.7007031 L25.88875,4.68992187 L28.4375,4.68992187 L28.4375,17.4267187 L5.47992188,17.4267187 L18.2167188,4.68992187 L23.6789844,4.68992187 L18.773125,9.59578125 C18.4680469,9.90085937 18.4680469,10.3955469 18.773125,10.7007031 Z M4.375,2.94515625 C4.375,2.18414063 4.99414062,1.56492188 5.75523438,1.56492188 L27.0573438,1.56492188 C27.8183594,1.56492188 28.4375781,2.18414063 28.4375781,2.94515625 L28.4375781,3.12742188 L4.375,3.12742188 L4.375,2.94515625 Z M4.375,4.68992188 L16.0069531,4.68992188 L4.375,16.321875 L4.375,4.68992188 Z M10.15625,28.7524219 C10.15625,29.1832031 9.80578125,29.5336719 9.375,29.5336719 C8.94421875,29.5336719 8.59375,29.1832031 8.59375,28.7524219 L8.59375,27.9711719 L10.15625,27.9711719 L10.15625,28.7524219 Z M7.65625,26.4086719 C5.84695313,26.4086719 4.375,24.9367187 4.375,23.1274219 L4.375,18.9892187 L28.4375,18.9892187 L28.4375,21.1742969 L19.6120313,21.1742969 C18.7573438,21.1742969 17.9696875,21.6025 17.5050781,22.3198437 L14.8566406,26.4086719 L7.65625,26.4086719 Z M20.2116406,37.6538281 C20.2116406,38.0846094 19.8611719,38.4350781 19.4303906,38.4350781 C18.9996094,38.4350781 18.6491406,38.0846094 18.6491406,37.6538281 L18.6491406,36.8725781 L20.2116406,36.8725781 L20.2116406,37.6538281 Z M34.7883594,37.6538281 C34.7883594,38.0846094 34.4378906,38.4350781 34.0071094,38.4350781 C33.5763281,38.4350781 33.2258594,38.0846094 33.2258594,37.6538281 L33.2258594,36.8725781 L34.7883594,36.8725781 L34.7883594,37.6538281 Z M38.4375,34.6875 C38.4375,35.0307812 38.1582031,35.3100781 37.8149219,35.3100781 L15.6225781,35.3100781 C15.2792969,35.3100781 15,35.0307812 15,34.6875 L15,29.6117969 L38.4375,29.6117969 L38.4375,34.6875 Z" id="Shape" fill-rule="nonzero"></path>
                <path d="M30.2864063,31.6796875 L23.1510156,31.6796875 C22.7195312,31.6796875 22.3697656,32.0295312 22.3697656,32.4609375 C22.3697656,32.8923438 22.7196094,33.2421875 23.1510156,33.2421875 L30.2864062,33.2421875 C30.7178906,33.2421875 31.0676562,32.8923438 31.0676562,32.4609375 C31.0676563,32.0295312 30.7178906,31.6796875 30.2864063,31.6796875 Z" id="Path"></path>
                <path d="M20.5523437,31.9085938 C20.4070312,31.7632812 20.2054687,31.6796875 20,31.6796875 C19.7945312,31.6796875 19.5929688,31.7632031 19.4476563,31.9085938 C19.3023437,32.0539063 19.21875,32.2554687 19.21875,32.4609375 C19.21875,32.6664063 19.3023437,32.8679687 19.4476563,33.0132031 C19.5929688,33.1585156 19.7945312,33.2421875 20,33.2421875 C20.2054687,33.2421875 20.4070312,33.1585938 20.5523437,33.0132031 C20.6976563,32.8679688 20.78125,32.6664063 20.78125,32.4609375 C20.78125,32.2554687 20.6976563,32.0539063 20.5523437,31.9085938 Z" id="Path"></path>
                <path d="M33.7039063,31.9085938 C33.5578125,31.7632812 33.35625,31.6796875 33.1507813,31.6796875 C32.9453125,31.6796875 32.7445313,31.7632031 32.5984375,31.9085938 C32.453125,32.0539063 32.3695313,32.2554687 32.3695313,32.4609375 C32.3695313,32.6664063 32.453125,32.8679687 32.5984375,33.0132031 C32.7445313,33.1585938 32.9453125,33.2421875 33.1507813,33.2421875 C33.35625,33.2421875 33.5578125,33.1585938 33.7039063,33.0132031 C33.8492188,32.8679688 33.9320313,32.6664063 33.9320313,32.4609375 C33.9320313,32.2554687 33.8492188,32.0539063 33.7039063,31.9085938 Z" id="Path"></path>
            </g>
        </g>
    </g>
</svg>