<?xml version="1.0" encoding="UTF-8"?>
<svg width="83px" height="60px" viewBox="0 0 83 60" version="1.1" xmlns="http://www.w3.org/2000/svg" xmlns:xlink="http://www.w3.org/1999/xlink">
    <!-- Generator: Sketch 52.5 (67469) - http://www.bohemiancoding.com/sketch -->
    <title>team</title>
    <desc>Created with Sketch.</desc>
    <g id="Page-1" stroke="none" stroke-width="1" fill="none" fill-rule="evenodd">
        <g id="2.-Gioi-thieu" transform="translate(-679.000000, -2113.000000)">
            <g id="team" transform="translate(679.000000, 2113.000000)">
                <path d="M60.2419512,25.3380645 L60.2419512,26.2727419 C60.2419512,27.4180645 60.4275664,28.5558065 60.791502,29.6422581 L62.9193496,35.9935484 L66.9354473,35.9935484 L66.9354473,21.3420968 L64.2580488,21.3420968 C62.0400684,21.3422581 60.2419512,23.131129 60.2419512,25.3380645 Z" id="Path" fill="#494949"></path>
                <path d="M78.5718203,28.105 L76.3065039,35.9937097 L65.596748,26.6701613 C64.1179863,26.6701613 62.9193496,25.4774194 62.9193496,24.0062903 C62.9193496,21.7995161 64.7174668,20.0104839 66.9354473,20.0104839 L76.3063418,20.0104839 C77.7851035,20.0104839 78.9837402,21.2032258 78.9837402,22.6743548 L78.9837402,25.1779032 C78.9839023,26.1677419 78.8451367,27.1529032 78.5718203,28.105 Z" id="Path" fill="#494949"></path>
                <rect id="Rectangle" fill="#E6AF78" x="65.5959375" y="39.9903226" width="8.03219531" height="5.895"></rect>
                <path d="M65.596748,42.436129 C66.8383438,42.9380645 68.1922813,43.2206452 69.6128457,43.2206452 C71.0334102,43.2206452 72.3873477,42.9380645 73.6289434,42.436129 L73.6289434,39.9895161 L65.596748,39.9895161 L65.596748,42.436129 Z" id="Path" fill="#D29B6E"></path>
                <path d="M80.0870566,45.0566129 L73.6286191,43.2208065 L69.6128457,45.8722581 L65.596748,43.2206452 L59.1386348,45.0566129 C57.4144395,45.5467742 56.2258535,47.1146774 56.2258535,48.8987097 L56.2258535,58.6367742 C56.2258535,59.3724194 56.8251719,59.9687097 57.5645527,59.9687097 L81.6613008,59.9687097 C82.4006816,59.9687097 83,59.3724194 83,58.6367742 L83,48.8987097 C83,47.1145161 81.811252,45.5467742 80.0870566,45.0566129 Z" id="Path" fill="#D5DCED"></path>
                <polygon id="Path" fill="#AFB9D2" points="70.9515449 59.9685484 68.2741465 59.9685484 68.9434961 45.8845161 70.2821953 45.8845161"></polygon>
                <path d="M69.6128457,41.3214516 C65.1767227,41.3214516 61.5806504,37.7433871 61.5806504,33.3298387 L61.5806504,31.7693548 C61.5806504,31.0629032 61.8627207,30.3853226 62.3647734,29.8856452 L64.7923613,27.4703226 C65.3064102,26.958871 66.0093164,26.6648387 66.7358906,26.6875806 C71.0152539,26.8219355 74.8031016,27.7340323 76.8737246,29.746129 C77.3806406,30.2387097 77.6452031,30.9277419 77.6452031,31.6325806 L77.6452031,33.3298387 C77.6452031,37.7435484 74.0489688,41.3214516 69.6128457,41.3214516 Z" id="Path" fill="#F0C087"></path>
                <path d="M65.596748,32.0996774 C65.596748,30.5632258 66.893623,29.3419355 68.4347969,29.4396774 C71.1373223,29.6112903 75.147584,30.0606452 77.607918,31.2380645 C77.5276738,30.676129 77.2849961,30.1456452 76.8737246,29.7459677 C74.8031016,27.733871 71.0152539,26.8217742 66.7358906,26.6874194 L66.7357285,26.6875806 L66.7357285,26.6874194 C66.0093164,26.6646774 65.306248,26.958871 64.7923613,27.4701613 L62.3649355,29.8853226 C61.8627207,30.3848387 61.5806504,31.0624194 61.5806504,31.7690323 L61.5806504,33.3295161 C61.5806504,36.9740323 64.0351484,40.0425806 67.3874082,41.0035484 C66.2716094,39.633871 65.5969102,37.8951613 65.5969102,35.9933871 L65.596748,32.0996774 Z" id="Path" fill="#E6AF78"></path>
                <path d="M77.6452031,52.8675806 C77.6452031,51.8077419 78.0683086,50.7914516 78.8214688,50.0420968 L82.2674277,46.6135484 C82.7279805,47.2685484 83,48.0570968 83,48.898871 L83,58.6369355 C83,59.3725806 82.4006816,59.968871 81.6613008,59.968871 L77.6452031,59.968871 L77.6452031,52.8675806 Z" id="Path" fill="#C7CFE2"></path>
                <path d="M70.2821953,48.5483871 L68.9434961,48.5483871 C68.5738867,48.5483871 68.2741465,48.2501613 68.2741465,47.8824194 L68.2741465,45.8845161 L70.9515449,45.8845161 L70.9515449,47.8824194 C70.9515449,48.2501613 70.6519668,48.5483871 70.2821953,48.5483871 Z" id="Path" fill="#959CB5"></path>
                <g id="Group" transform="translate(64.033203, 42.096774)" fill="#C7CFE2">
                    <path d="M5.57964258,3.77564516 L3.31059766,5.5 C2.91975195,5.79709677 2.35463867,5.67806452 2.11844531,5.24870968 L0.083,1.55032258 L0.902300781,0.306935484 C1.08402539,0.0311290323 1.47130469,-0.0158064516 1.71430664,0.208387097 L5.57964258,3.77564516 Z" id="Path"></path>
                    <path d="M5.57964258,3.77564516 L7.8486875,5.50016129 C8.2395332,5.79725806 8.80464648,5.67822581 9.04083984,5.24887097 L11.0762852,1.55048387 L10.2569844,0.307096774 C10.0752598,0.0312903226 9.68798047,-0.0156451613 9.44497852,0.208548387 L5.57964258,3.77564516 Z" id="Path"></path>
                </g>
                <path d="M23.963332,40.7653226 C22.8193262,37.7495161 21.912,32.5651613 21.7160098,29.8659677 C21.3431582,24.7295161 17.4526953,20.5424194 12.193543,20.5424194 C6.93439063,20.5424194 3.04392773,24.7296774 2.67107617,29.8659677 C2.47508594,32.565 1.56775977,37.7495161 0.423753906,40.7653226 C0.171673828,41.4301613 0.462660156,42.1632258 1.12066211,42.46 C2.3465332,43.0127419 4.96022266,44.0956452 8.11243945,44.5174194 L16.2744844,44.5174194 C19.4119492,44.0946774 22.043957,43.011129 23.2662617,42.46 C23.9244258,42.1632258 24.2154121,41.4301613 23.963332,40.7653226 Z" id="Path" fill="#494949"></path>
                <path d="M23.2664238,42.4601613 C23.9242637,42.1633871 24.2154121,41.4303226 23.9631699,40.7654839 C22.8193262,37.7496774 21.9118379,32.5653226 21.7160098,29.866129 C21.3433203,24.7296774 17.4526953,20.5425806 12.1937051,20.5425806 C12.1804121,20.5425806 12.1672812,20.5425806 12.1539883,20.5427419 C8.11859961,20.5590323 6.69252344,26.0346774 10.1663652,28.0777419 C10.375,28.2004839 10.5087402,28.2595161 10.5087402,28.2595161 L13.5513711,44.5175806 L16.2746465,44.5175806 C19.4121113,44.0945161 22.0441191,43.011129 23.2664238,42.4601613 Z" id="Path" fill="#494949"></path>
                <path d="M21.8766602,47.1916129 L17.5444492,45.0366129 C16.6372852,44.5853226 16.0642285,43.6627419 16.0643906,42.6537097 L16.0647148,38.6577419 L8.03219531,38.6577419 L8.03219531,42.653871 C8.03219531,43.6629032 7.45930078,44.5851613 6.55213672,45.0364516 L2.21992578,47.1916129 C0.859341797,47.8683871 0,49.2519355 0,50.7653226 L0,58.6366129 C0,59.3720968 0.599318359,59.9685484 1.33869922,59.9685484 L22.7580488,59.9685484 C23.4974297,59.9685484 24.096748,59.3720968 24.096748,58.6366129 L24.096748,50.7654839 C24.096748,49.2519355 23.2372441,47.8683871 21.8766602,47.1916129 Z" id="Path" fill="#E6AF78"></path>
                <path d="M12.0484551,43.9853226 C13.4899316,43.9853226 14.8706172,43.6896774 16.1363672,43.1633871 C16.1031348,42.9954839 16.0643906,42.8285484 16.0643906,42.6535484 L16.0647148,38.6575806 L8.03219531,38.6575806 L8.03219531,42.6537097 C8.03219531,42.8296774 7.99345117,42.9974194 7.95989453,43.1659677 C9.22645508,43.6895161 10.6064922,43.9853226 12.0484551,43.9853226 Z" id="Path" fill="#D29B6E"></path>
                <path d="M21.8766602,47.1916129 L18.7904219,45.6562903 C17.3593203,47.855 14.8772637,49.3132258 12.0484551,49.3132258 C9.21964648,49.3132258 6.73742773,47.855 5.30632617,45.656129 L2.22008789,47.1916129 C0.859503906,47.8683871 0,49.2519355 0,50.7653226 L0,58.6366129 C0,59.3722581 0.599318359,59.9685484 1.33869922,59.9685484 L22.7580488,59.9685484 C23.4974297,59.9685484 24.096748,59.3722581 24.096748,58.6366129 L24.096748,50.7654839 C24.096748,49.2519355 23.2372441,47.8683871 21.8766602,47.1916129 Z" id="Path" fill="#D5DCED"></path>
                <path d="M12.0484551,41.3214516 C7.9645957,41.3214516 4.5927207,38.2891935 4.08288672,34.3641935 C4.00896484,33.7954839 4.28374023,33.2379032 4.79827539,32.9796774 C5.41461523,32.6703226 6.31026953,32.1487097 7.16782813,31.3874194 C8.12281445,30.5396774 8.68306445,29.6456452 8.99950195,28.9893548 C9.27200781,28.4241935 9.89839844,28.1045161 10.5089023,28.2595161 C15.2223945,29.4556452 18.4313496,31.8954839 19.5956191,32.8916129 C19.908166,33.1590323 20.0882695,33.5533871 20.0561719,33.9624194 C19.731791,38.0801613 16.2705938,41.3214516 12.0484551,41.3214516 Z" id="Path" fill="#F0C087"></path>
                <path d="M19.595457,32.8914516 C18.4313496,31.8953226 15.2222324,29.4554839 10.5087402,28.2593548 C9.89823633,28.1043548 9.2718457,28.4240323 8.99933984,28.9891935 C8.75974219,29.4862903 8.36370898,30.1195161 7.7760625,30.7659677 C7.77590039,30.7675806 7.77541406,30.768871 7.77525195,30.7704839 C7.59287891,30.976129 7.39867188,31.1822581 7.16782813,31.3874194 C6.31026953,32.148871 5.41461523,32.6703226 4.79827539,32.9796774 C4.28374023,33.2379032 4.00912695,33.7956452 4.08288672,34.3643548 C4.5408457,37.8893548 7.31324023,40.6951613 10.8306895,41.2303226 C9.22791406,40.1454839 8.03235742,38.6535484 8.03235742,35.993871 L8.03235742,34.0945161 C8.33647461,33.871129 8.64269922,33.6483871 8.95038281,33.3751613 C9.69446484,32.7145161 10.3440371,31.9504839 10.8648945,31.1279032 C14.4706934,32.2474194 16.9153027,34.1120968 17.842082,34.905 C18.0957832,35.1262903 18.725416,35.7037097 19.462041,36.3912903 C19.7789648,35.6324194 19.9885723,34.8182258 20.0558477,33.9625806 C20.0881074,33.5533871 19.9080039,33.1590323 19.595457,32.8914516 Z" id="Path" fill="#E6AF78"></path>
                <path d="M0.816058594,48.3643548 C0.300388672,49.0453226 0,49.8806452 0,50.7653226 L0,58.6366129 C0,59.3722581 0.599318359,59.9685484 1.33869922,59.9685484 L5.35479687,59.9685484 L5.35479687,53.2572581 C5.35479687,52.4480645 4.98502539,51.6825806 4.34988086,51.1770968 L0.816058594,48.3643548 Z" id="Path" fill="#C7CFE2"></path>
                <path d="M60.7331426,45.373871 L49.5321953,41.3212903 L41.5,43.9853226 L33.4678047,41.3214516 L22.2668574,45.3740323 C20.1506816,46.1396774 18.7419512,48.1406452 18.7419512,50.3809677 L18.7419512,58.6367742 C18.7419512,59.3722581 19.3412695,59.9687097 20.0806504,59.9687097 L62.9193496,59.9687097 C63.6587305,59.9687097 64.2580488,59.3722581 64.2580488,58.6367742 L64.2580488,50.3809677 C64.2580488,48.1404839 62.8494805,46.1395161 60.7331426,45.373871 Z" id="Path" fill="#FFC02C"></path>
                <polygon id="Path" fill="#707487" points="40.0975918 46.6493548 38.8226016 59.9685484 44.1773984 59.9685484 42.9024082 46.6493548"></polygon>
                <path d="M42.9054883,48.4791935 L40.0945117,48.4791935 C39.5768965,48.4791935 39.1573574,48.0617742 39.1573574,47.5467742 L39.1573574,43.9853226 L43.8424805,43.9853226 L43.8424805,47.5467742 C43.8426426,48.0616129 43.4231035,48.4791935 42.9054883,48.4791935 Z" id="Path" fill="#5B5D6E"></path>
                <path d="M62.8170586,46.7508065 C63.7209805,47.716129 64.2580488,49.0017742 64.2580488,50.3808065 L64.2580488,58.6366129 C64.2580488,59.3722581 63.6587305,59.9685484 62.9193496,59.9685484 L56.2258535,59.9685484 L56.2258535,55.5156452 C56.2258535,54.1025806 56.7899941,52.7474194 57.7942617,51.7483871 L62.8170586,46.7508065 Z" id="Path" fill="#D79A0B"></path>
                <path d="M56.2258535,13.8530645 L56.2258535,2.695 C56.2258535,1.22370968 55.0270547,0.0311290323 53.5484551,0.0311290323 L37.4839023,0.0311290323 C31.5691797,0.0311290323 26.7741465,4.80177419 26.7741465,10.6867742 L26.7741465,13.8530645 C26.7741465,15.2846774 27.006125,16.7069355 27.461166,18.065 L27.9068047,19.3951613 C28.0433008,19.8025806 28.1128457,20.2291935 28.1128457,20.6587097 L28.1128457,21.3422581 L54.8869922,21.3422581 L54.8869922,20.6587097 C54.8869922,20.2291935 54.9565371,19.8025806 55.0930332,19.3951613 L55.5386719,18.065 C55.993875,16.7067742 56.2258535,15.2845161 56.2258535,13.8530645 Z" id="Path" fill="#494949"></path>
                <path d="M33.4678047,5.44209677 C33.4678047,8.43048387 35.9026875,10.8530645 38.90625,10.8530645 L39.659248,10.8530645 L40.0226973,21.3420968 L54.8869922,21.3420968 L54.8869922,20.6585484 C54.8869922,20.2290323 54.9565371,19.8024194 55.0930332,19.395 L55.5386719,18.0648387 C55.9937129,16.7067742 56.2256914,15.2845161 56.2256914,13.8529032 L56.2256914,2.695 C56.2256914,1.22370968 55.0268926,0.0311290323 53.548293,0.0311290323 L38.90625,0.0311290323 C35.9026875,0.0311290323 33.4678047,2.45370968 33.4678047,5.44209677 Z" id="Path" fill="#494949"></path>
                <rect id="Rectangle" fill="#E6AF78" x="33.4674805" y="31.9983871" width="16.0650391" height="11.9870968"></rect>
                <path d="M33.4678047,36.5016129 C35.8326562,37.8646774 38.5705215,38.6574194 41.5,38.6574194 C44.4294785,38.6574194 47.1675059,37.8646774 49.5321953,36.5016129 L49.5321953,31.9977419 L33.4676426,31.9977419 L33.4678047,36.5016129 Z" id="Path" fill="#D29B6E"></path>
                <g id="Group" transform="translate(30.638672, 39.032258)" fill="#D79A0B">
                    <path d="M10.8613281,4.95306452 L6.59169141,9.20112903 C6.01782422,9.77209677 5.06932227,9.70774194 4.5787793,9.06451613 L0.151734375,3.26064516 L1.30968164,0.832741935 C1.6514082,0.116290323 2.54268555,-0.146290323 3.22127539,0.26983871 L10.8613281,4.95306452 Z" id="Path"></path>
                    <path d="M10.8613281,4.95306452 L15.1309648,9.20112903 C15.704832,9.77209677 16.653334,9.70774194 17.143877,9.06451613 L21.5709219,3.26064516 L20.4129746,0.832741935 C20.071248,0.116290323 19.1799707,-0.146290323 18.5013809,0.26983871 L10.8613281,4.95306452 Z" id="Path"></path>
                </g>
                <path d="M41.5,35.9937097 C34.1065156,35.9937097 28.1128457,30.0303226 28.1128457,22.6741935 L28.1128457,21.1137097 C28.1128457,20.4072581 28.394916,19.7296774 28.8969687,19.23 L30.005959,18.1266129 C30.5080117,17.6270968 30.790082,16.9495161 30.790082,16.2429032 L30.790082,13.05 C30.790082,12.4332258 31.2063789,11.8974194 31.8095879,11.7556452 C34.9757461,11.0116129 44.8282676,9.24919355 51.5332734,14.1556452 C51.9686992,14.4741935 52.2094316,14.9975806 52.2094316,15.5353226 L52.2094316,16.2429032 C52.2094316,16.9493548 52.491502,17.6269355 52.9935547,18.1266129 L54.1025449,19.23 C54.6045977,19.7295161 54.886668,20.4070968 54.886668,21.1137097 L54.886668,22.6741935 C54.8871543,30.0303226 48.8934844,35.9937097 41.5,35.9937097 Z" id="Path" fill="#F0C087"></path>
                <path d="M51.5334355,14.1558065 C46.8176738,10.705 40.5536055,10.5556452 36.1452031,11.0280645 C34.2856465,11.2272581 32.7491738,11.5351613 31.8099121,11.7558065 C31.2067031,11.8975806 30.7904063,12.4333871 30.7904063,13.0501613 L30.7904063,16.2429032 C30.7904063,16.9495161 30.5083359,17.6270968 30.0061211,18.1267742 L28.8971309,19.2301613 C28.394916,19.7298387 28.1128457,20.4074194 28.1128457,21.1140323 L28.1128457,22.6743548 C28.1128457,29.4846774 33.253334,35.0912903 39.8823105,35.8872581 C37.5724141,33.493871 36.145041,30.2504839 36.145041,26.6701613 L36.145041,16.9345161 C36.145041,15.5846774 37.1538477,14.4566129 38.4998418,14.2887097 C41.7125254,13.8879032 47.5967715,13.6469355 52.2094316,16.2432258 L52.2094316,15.5354839 C52.2097559,14.9977419 51.9685371,14.4741935 51.5334355,14.1558065 Z" id="Path" fill="#E6AF78"></path>
                <path d="M20.1829414,46.7508065 C19.2790195,47.716129 18.7419512,49.0017742 18.7419512,50.3808065 L18.7419512,58.6366129 C18.7419512,59.3722581 19.3412695,59.9685484 20.0806504,59.9685484 L26.7741465,59.9685484 L26.7741465,55.5156452 C26.7741465,54.1025806 26.2100059,52.7474194 25.2057383,51.7483871 L20.1829414,46.7508065 Z" id="Path" fill="#D79A0B"></path>
            </g>
        </g>
    </g>
</svg>