<?xml version="1.0" encoding="UTF-8"?>
<svg width="64px" height="60px" viewBox="0 0 64 60" version="1.1" xmlns="http://www.w3.org/2000/svg" xmlns:xlink="http://www.w3.org/1999/xlink">
    <!-- Generator: Sketch 52.5 (67469) - http://www.bohemiancoding.com/sketch -->
    <title>insurance</title>
    <desc>Created with Sketch.</desc>
    <g id="Page-1" stroke="none" stroke-width="1" fill="none" fill-rule="evenodd">
        <g id="2.-Gioi-thieu" transform="translate(-688.000000, -1878.000000)">
            <g id="insurance" transform="translate(688.000000, 1878.000000)">
                <path d="M20.83008,43.8089362 L26.73216,36.8329787 L40.72192,36.8329787 C43.4984694,36.8329787 45.7494066,39.0776435 45.74976,41.8468085 L49.24672,41.8468085 L57.26336,37.3787234 C58.6714858,36.5932407 60.2579487,36.1807586 61.87136,36.1806383 L62.93696,36.1806383 C63.3299985,36.180715 63.6838384,36.418189 63.8319387,36.7812888 C63.9800389,37.1443886 63.8928939,37.560775 63.61152,37.8344681 L52.87872,48.2706383 C50.5263377,50.5581851 47.4697632,51.9885282 44.20224,52.3308511 L20.83008,53.4012766 L20.83008,43.8089362 Z" id="Path" fill="#FDB6A1"></path>
                <path d="M33.728,45.9070213 C33.1622623,45.9056088 32.6864095,45.4836405 32.6188245,44.9234463 C32.5512395,44.3632521 32.913146,43.8407487 33.4624,43.7055319 L45.4816,40.7623404 C45.870305,40.667247 46.2803502,40.7861971 46.5572756,41.0743835 C46.8342011,41.3625698 46.9359352,41.77621 46.8241556,42.1594898 C46.7123761,42.5427696 46.404065,42.8374597 46.01536,42.9325532 L33.9968,45.8744681 C33.9088694,45.8962275 33.8185968,45.90716 33.728,45.9070213 Z" id="Path" fill="#FA8C62"></path>
                <polygon id="Path" fill="#E7FFFF" points="14.56384 41.8468085 20.83008 41.8468085 20.83008 59.6802128 14.56384 59.6802128"></polygon>
                <polygon id="Path" fill="#D79A0B" points="0.09344 41.8468085 14.56384 41.8468085 14.56384 59.6802128 0.09344 59.6802128"></polygon>
                <path d="M56.96576,5.2187234 C52.3697278,3.85218775 47.8586219,2.2161484 43.456,0.319148936 C39.055229,2.21568531 34.5460548,3.85150855 29.952,5.21808511 C29.952,5.21808511 27.776,25.3104255 43.456,30.5010638 C59.14432,25.3110638 56.96576,5.2187234 56.96576,5.2187234 Z" id="Path" fill="#FFC02C"></path>
                <path d="M41.63392,21.0478723 C41.1712915,21.0472612 40.7283921,20.86091 40.40512,20.5308511 L36.17472,16.2082979 C35.745887,15.7701154 35.5840198,15.1370469 35.7500924,14.5475631 C35.9161649,13.9580793 36.3849468,13.5017368 36.9798524,13.3504354 C37.574758,13.1991341 38.205407,13.3758601 38.63424,13.8140426 L41.63712,16.8817021 L48.896,9.48957447 C49.3256333,9.05207615 49.9566558,8.87640808 50.5513675,9.02874272 C51.1460792,9.18107736 51.6141291,9.63827146 51.7792075,10.2281044 C51.9442859,10.8179374 51.7813133,11.4507996 51.35168,11.8882979 L42.86144,20.532766 C42.5384071,20.8621699 42.0959121,21.0478549 41.63392,21.0478723 Z" id="Path" fill="#E7FFFF"></path>
            </g>
        </g>
    </g>
</svg>